<svg height="560" viewBox="0 0 657 560" width="657" xmlns="http://www.w3.org/2000/svg"><path d="m217.113 53.267c-.015 3.1-.028 5.723-.07 6.983a1.619 1.619 0 0 1 -1.843 1.79 9.913 9.913 0 0 1 -1.691-.224h-.144a.785.785 0 0 0 -.8.824c0 1.08 1.65 1.16 2.622 1.165 2.484.012 3.643-1.386 3.652-3.294v-.073c-.031-1.152-.06-2.592-.053-4 .008-1.62.071-6.983.094-11.662.012-2.376.022-4.535-.006-6.011-.058-2.808-1.822-2.853-4.414-2.865-2.843-.014-4.536.085-4.549 2.821-.011 2.2.083 5 .069 7.956-.046 9.143-1.258 14.14-3 17.083a.971.971 0 0 0 -.11.431.927.927 0 0 0 .968.869c1.944.01 3.312-7.327 3.658-11.825zm17.725 11.5c3.132.016 4.72-.84 4.745-5.988v-.288a.859.859 0 0 0 -.9-.868c-.864 0-.9.679-.906 1.291-.019 3.815-.92 4.027-2.54 4.019-1.943-.01-1.942-.37-1.927-3.357.022-4.5.135-12.67.158-17.421l.013-2.664c-.057-2.916-1.856-3.069-4.736-3.083-3.527-.018-5.363.009-5.38 3.321-.01 2.124.086 4.572.073 7.127-.029 5.939-.6 12.488-4.187 16.969a.814.814 0 0 0 -.183.539 1.028 1.028 0 0 0 1.039.941 1.128 1.128 0 0 0 .9-.464c3.911-4.912 4.31-12.685 4.343-19.416l.028-5.579c.009-1.8 1.2-1.794 3.068-1.785 2.34.012 3.13.267 3.123 1.743l-.007 1.512c-.021 4.212-.137 13.03-.162 18.141l-.01 1.98c.002 1.475.461 3.313 3.448 3.328zm-23.079-20.74c.009-1.764-.018-3.456-.011-4.931a1.346 1.346 0 0 1 1.412-1.577l2.483.012c1.116.041 1.4.547 1.432 1.591.03 1.188.022 2.916.048 4.932zm5.362 7.658-5.507-.027c.118-2.051.128-4.1.138-6.083l5.4.027zm55.336-1.094c.026-5.291-4.234-10.064-11.217-10.1-7.955-.039-14 6.626-14.029 12.745-.017 3.348 1.877 6.129 4.109 6.14a3.564 3.564 0 0 0 2.525-1.175c2.858-2.794 7.39-9.358 7.412-13.966a1.281 1.281 0 0 0 -1.252-1.59.97.97 0 0 0 -.977 1.111v.072.36c-.028 5.579-5.348 11.528-6.361 12.423a2.123 2.123 0 0 1 -1.3.605c-1.583-.008-2.256-2.315-2.247-4.115.028-5.651 6.207-10.444 10.276-10.82a13.8 13.8 0 0 1 1.693-.1c5.723.028 9.2 3.825 9.174 8.216-.021 4.319-3.394 9.45-11.535 10.67a1.163 1.163 0 0 0 -1.157 1.038 1.084 1.084 0 0 0 1.182 1.05c2.663.014 13.659-3.455 13.704-12.566zm19.069-11.931a12.044 12.044 0 0 0 1.67-2.8 1.056 1.056 0 0 0 -1-1.013.983.983 0 0 0 -.831.572 36.972 36.972 0 0 1 -10.427 11.681.947.947 0 0 0 -.472.79.921.921 0 0 0 .931.9c1.476.007 7.629-6.873 9.006-8.63 1.476-.029 4.1-.016 5.687-.008 1.512.008 2.052.01 2.049.514 0 .576-.8 1.508-3.187 4.052-2.232-.011-4.428.014-6.48.076-2.664.059-3.752 1.673-3.831 3.077-.078 1.331-.088 3.275-.1 5.327-.012 2.484-.025 5.111 0 7.055.023 2.592 1.672 4.076 4.118 4.34 2.159.227 4.822.384 7.593.4a79.087 79.087 0 0 0 8.461-.39c3.71-.378 5.088-2.531 5.144-6.634a1.047 1.047 0 0 0 -1.108-.969.98.98 0 0 0 -.977 1.183c-.013 2.52-.7 4.208-3.407 4.591a63.162 63.162 0 0 1 -8.281.427c-2.447-.012-4.931-.132-7.053-.359a2.654 2.654 0 0 1 -2.614-2.785c-.03-1.3-.02-3.168-.012-4.9 2.34.048 5.471.1 8.567.114 3.131.015 6.227-.005 8.531-.066 2.34-.06 3.57-1.314 3.65-2.9.039-.648.079-1.547.084-2.411 0-.9-.028-1.728-.061-2.2-.1-1.512-1.319-2.742-3.694-2.826q-3.131-.123-6.371-.139c2.967-3.045 3.258-3.727 3.261-4.339 0-.9-.711-1.731-2.331-1.739zm5.11 7.656c2.159.011 4.319.057 6.19.1 2.448.048 2.479 1.056 2.465 3.828 0 .576 0 1.116-.043 1.476-.19 2.015-.982 2.011-8.649 1.973zm-1.909 7.37c-2.987-.015-6.082-.1-8.35-.149.009-1.872.056-4.031.134-5.255.041-1.008.765-1.9 2.493-1.931 1.692-.028 3.708-.054 5.76-.044zm33-3.832c1.626-1.144 3.288-2.359 4.913-3.467 3.034-2.073 6.027-3.282 8.259-3.271 1.3.006 3.489.557 3.479 2.645-.01 2.016-2.077 5.1-7.657 5.074a11.813 11.813 0 0 1 -2.41-.264 2.481 2.481 0 0 0 -.468-.074 1.034 1.034 0 0 0 -1.12 1c-.006 1.116 1.217 1.338 3.808 1.351 6.8.034 9.919-3.91 9.935-7.15.012-2.592-2.283-4.331-5.414-4.346-2.88-.014-6.127 1.41-9.052 3.339-1.95 1.286-3.684 2.573-5.345 3.681-.823-1.12-1.681-2.348-1.677-3.032 0-.432.328-.754 1.157-.966a22.241 22.241 0 0 1 3.89-.557 1.326 1.326 0 0 0 1.554-1.288c.012-2.34-3.936-4.807-4.872-4.812a.937.937 0 0 0 -1.012.823.811.811 0 0 0 .573.687c1.365.547 2.907 1.742 2.9 2.57a.642.642 0 0 1 -.543.537c-.468.106-2.81.454-3.386.6-1.514.352-2.238 1.177-2.243 2.221 0 1.08.352 1.586 2.211 4.187a24.461 24.461 0 0 1 -5.485 2.744 1.246 1.246 0 0 0 -1.049 1.111 1.046 1.046 0 0 0 1.075 1.013c.324 0 2.27-.529 6.532-3.387 6.185 8.454 7.715 12.025 8.176 13.431a1.18 1.18 0 0 0 1.075.977 1.153 1.153 0 0 0 1.05-1.255c.009-1.656-3.637-7-8.678-13.9zm32.934 15.246c.008-1.656-5.481-5.463-6.669-5.468a.9.9 0 0 0 -.94.9.917.917 0 0 0 .536.794 15.606 15.606 0 0 1 5.2 4.309 1.016 1.016 0 0 0 1.873-.535zm43.576-17.891a1.152 1.152 0 0 0 1.121-1.146 1.192 1.192 0 0 0 -.427-.9c-1.685-1.52-4.591-3.3-5.491-3.3a1.075 1.075 0 0 0 -1.085 1.038.749.749 0 0 0 .5.722 14.552 14.552 0 0 1 4.448 3.154 1.2 1.2 0 0 0 .934.432zm-7.344 14.722a1.008 1.008 0 0 0 -.869 1.04 1.182 1.182 0 0 0 1.29 1.194 8.742 8.742 0 0 0 3.713-1.241c7.472-4.139 12.934-9.511 17.726-17.622a2.17 2.17 0 0 0 .328-1.006.981.981 0 0 0 -1-1.013 1.146 1.146 0 0 0 -1.047.643c-5.378 9.691-14.413 17.025-20.141 18.005zm2.6-8.59a1.156 1.156 0 0 0 1.086-1.183 1.114 1.114 0 0 0 -.607-.975 21.976 21.976 0 0 0 -5.893-2.117 1 1 0 0 0 -1.085 1 .861.861 0 0 0 .751.9 14.505 14.505 0 0 1 4.993 2.112 1.268 1.268 0 0 0 .753.262zm47.784-10.311a1.342 1.342 0 0 0 -.822-1.12 32.014 32.014 0 0 0 -7.762-2.63 1.094 1.094 0 0 0 -1.229 1 .939.939 0 0 0 .823.9 27.882 27.882 0 0 1 7.15 2.771 1.466 1.466 0 0 0 .647.183 1.186 1.186 0 0 0 1.193-1.104zm-4.255 8.762a1.186 1.186 0 0 0 1.122-1.182 1.126 1.126 0 0 0 -.463-.9 23.531 23.531 0 0 0 -6.106-2.694 1.115 1.115 0 0 0 -1.122 1.074 1.036 1.036 0 0 0 .823.976 19.571 19.571 0 0 1 5.1 2.509 1.164 1.164 0 0 0 .646.217zm5.593 11.834a1.377 1.377 0 0 0 -1.145-1.3c-3.991-1.028-6.857-3.669-9.15-5.877a1.378 1.378 0 0 0 -.97-.437 1.1 1.1 0 0 0 -.765 1.832c2.148 2.458 8.208 7.024 10.584 7.036a1.3 1.3 0 0 0 1.446-1.254zm21.124 2.012c.009-1.656-5.48-5.463-6.668-5.468a.9.9 0 0 0 -.94.9.915.915 0 0 0 .536.794 15.607 15.607 0 0 1 5.2 4.309 1.016 1.016 0 0 0 1.872-.535zm-353.551 60.6c8.335-4.17 13.082-10.518 16.325-18.457a13.189 13.189 0 0 0 1.028-4.1 1.181 1.181 0 0 0 -1.218-1.194 1.124 1.124 0 0 0 -1.157 1 20.516 20.516 0 0 1 -.772 3.416 30 30 0 0 1 -15.494 17.57 1.127 1.127 0 0 0 -.725 1.04.965.965 0 0 0 1.039.977 2.164 2.164 0 0 0 .974-.247zm2.334-13.451a1.307 1.307 0 0 0 1.266-1.289c.005-1.08-2.209-4.547-3.963-6.607a1.471 1.471 0 0 0 -1.041-.581 1.071 1.071 0 0 0 -1.085 1 .822.822 0 0 0 .249.577 19.113 19.113 0 0 1 3.463 5.921 1.246 1.246 0 0 0 1.111.984zm55.618-7.14a1.017 1.017 0 0 0 .9-1c.007-1.332-4.231-3.261-4.7-3.263a.875.875 0 0 0 -.9.787.763.763 0 0 0 .537.651 16.358 16.358 0 0 1 3.659 2.574.631.631 0 0 0 .504.256zm-3.182 2.828a.956.956 0 0 0 .905-.967c.006-1.224-3.979-3.368-4.591-3.371a.886.886 0 0 0 -.94.788.761.761 0 0 0 .537.65 15.221 15.221 0 0 1 3.55 2.645.7.7 0 0 0 .539.26zm2.285 11.026a1.268 1.268 0 0 0 1.158-1.29c.013-2.628-8.878-9.835-10.39-9.842a1.075 1.075 0 0 0 -1.085 1.038.833.833 0 0 0 .429.722c2.8 1.6 7.137 5.183 8.884 8.647a1.156 1.156 0 0 0 1.004.73zm-15.936-9.258a1.4 1.4 0 0 0 .038-.359 1.048 1.048 0 0 0 -1.147-1.05.95.95 0 0 0 -1.011.679c-.919 3.847-5.727 7.927-8.973 9.135a1.285 1.285 0 0 0 -.941 1.111 1.111 1.111 0 0 0 1.183 1.085c1.907.015 9.494-5.599 10.851-10.596zm42.66-.077c1.585-.172 3.061-.345 4.574-.553a2.442 2.442 0 0 1 .5-.034 1.336 1.336 0 0 1 1.468 1.556c0 .863-.905 8.31-2.716 10.749-.906 1.219-2.1 2.257-3.4 2.251a2.838 2.838 0 0 1 -2.118-1.09 1.057 1.057 0 0 0 -1.912.674c0 .972 1.968 2.529 3.911 2.539s3.894-1.2 5.345-3.429c2.249-3.481 2.971-11.288 2.974-11.828a3 3 0 0 0 -3.224-3.22c-.144 0-.216 0-4.934.552a28.9 28.9 0 0 0 .785-5.864c0-.935-.063-1.728-1.107-1.733a.966.966 0 0 0 -1.085.931v.072c.033.5.03 1.08.027 1.764a22.34 22.34 0 0 1 -.709 5.071 79.6 79.6 0 0 1 -8.751.785h-.5-.072a1.015 1.015 0 0 0 -1.049 1 1.047 1.047 0 0 0 1.255.978 41.473 41.473 0 0 0 4.754-.444c1.333-.174 2.629-.311 3.854-.449-1.828 5.678-5.563 11.275-11.517 14.161a1.187 1.187 0 0 0 -.8 1 1.082 1.082 0 0 0 1.111 1.014c1.016.013 9.82-4.262 13.336-16.448zm28.34-1.263a15.5 15.5 0 0 0 3.53-.595c1.982-.422 6.055-1.482 8.288-1.687h.18c.432 0 .611.147.61.4 0 .612-5.711 12.031-17.826 16.11a1.3 1.3 0 0 0 -1.013 1.075 1.14 1.14 0 0 0 1.219 1.014c.576 0 7.318-2.16 13.506-8.788 3.376 1.528 7.86 4.682 10.005 7.5a1.233 1.233 0 0 0 .934.545 1.171 1.171 0 0 0 1.121-1.218c.008-1.548-4.652-5.387-10.757-8.261.9-1.075 5.4-6.956 5.4-8.468.005-.972-.783-1.876-2.439-1.884a3.094 3.094 0 0 0 -.576.033c-2.881.274-7.422 1.475-8.755 1.685a20.266 20.266 0 0 1 -3.386.415 1.025 1.025 0 0 0 -1.264.93 1.221 1.221 0 0 0 1.182 1.193h.036zm66.258 10.514a26.029 26.029 0 0 1 6.063 4.242 1.131 1.131 0 0 0 .79.363 1.146 1.146 0 0 0 1.085-1.146 1.242 1.242 0 0 0 -.463-.938 32.143 32.143 0 0 0 -6.71-4.281 23.267 23.267 0 0 0 1.247-4.817 1.042 1.042 0 0 0 -1.074-1.014.859.859 0 0 0 -.94.824 15.189 15.189 0 0 1 -.921 4.243 37.892 37.892 0 0 0 -9.6-2.747 92.249 92.249 0 0 0 6.167-9.653 2.847 2.847 0 0 0 .367-1.33 1.434 1.434 0 0 0 -1.613-1.448c-.36 0-2.161.314-3.206.524a10.571 10.571 0 0 1 -1.837.171 7.887 7.887 0 0 1 -1.618-.188.614.614 0 0 0 -.252-.037.887.887 0 0 0 -.833.932c0 .756.75 1.191 2.406 1.2a14.1 14.1 0 0 0 3.855-.665 2.616 2.616 0 0 1 .432-.07.219.219 0 0 1 .251.217c0 .72-2.728 5.782-6.1 10.157-.468-.038-.972-.041-1.44-.043-6.695-.033-8.686 2.26-8.695 4.132-.009 1.656 1.605 2.924 3.657 2.934 2.123.011 3.783-.845 7.261-5.256a34.412 34.412 0 0 1 10.028 2.858 13.805 13.805 0 0 1 -8.889 6.9 1.077 1.077 0 0 0 -.9.967 1 1 0 0 0 1.075.978 16.184 16.184 0 0 0 10.407-8.004zm-13.8-3.848c-2.136 2.473-3.474 3.619-5.237 3.61-1.368-.007-1.8-.693-1.794-1.233.006-1.224 2.027-2.4 6.491-2.379zm36.895 1.011a.407.407 0 0 1 .109-.216c.327-.538 5.552-8.935 7.219-11.267 1.7-2.331 1.849-2.655 1.851-3.05a1.184 1.184 0 0 0 -1.182-1.122 1.049 1.049 0 0 0 -.939.571c-.363.718-1.342 2.117-1.923 3.122-1.67 2.836-3.449 5.887-5.409 9.116-4.971 8.147-6.281 10.876-6.284 11.524a.98.98 0 0 0 1.111 1.013c.576 0 1.226-.353 1.956-2.546 1.827-5.39 5.976-7.313 7.416-7.306.828 0 1.329.546 1.323 1.662a12.89 12.89 0 0 1 -.736 3.308 5.778 5.778 0 0 0 -.26 1.655c0 .72.164 3.24 4.411 3.261 8.531.042 12.648-9.944 12.654-11.24a1.138 1.138 0 0 0 -2.267-.155c-.808 3.415-4.69 9.444-10.269 9.416-1.548-.008-2.481-.624-2.474-1.884a3.351 3.351 0 0 1 .148-.971 11.928 11.928 0 0 0 .7-3.38c.012-2.412-1.244-3.21-2.756-3.218a6.8 6.8 0 0 0 -4.147 1.6.415.415 0 0 1 -.217.143zm42.067-11.059a70.217 70.217 0 0 1 -6.863 12.024 1.446 1.446 0 0 0 -.292.827.825.825 0 0 0 .9.8 1.361 1.361 0 0 0 1.192-.714 104.448 104.448 0 0 0 7.267-13.714c1.839-.819 3.175-1.532 3.179-2.4a.807.807 0 0 0 -.824-.8.979.979 0 0 0 -.613.213 10.533 10.533 0 0 1 -1.264.821 12.684 12.684 0 0 0 .336-2.482.953.953 0 0 0 -1-1.085.9.9 0 0 0 -.976.859 18.993 18.993 0 0 1 -.378 3.6c-3.535 1.531-4.545 1.85-5.624 1.844a2.487 2.487 0 0 1 -.9-.148 1.221 1.221 0 0 0 -.5-.075.871.871 0 0 0 -.905.9c0 .5.391 1.118 2.011 1.126a13.649 13.649 0 0 0 5.251-1.591zm8.152 18.4a13.968 13.968 0 0 1 4.019 2.648 1.123 1.123 0 0 0 .754.363 1.041 1.041 0 0 0 .977-1.075c.007-1.548-4.411-3.369-5.669-3.807-.066-1.117-.24-2.3-.38-3.206a11.782 11.782 0 0 1 -.169-2.124c.013-2.736 1.244-4.17 4.024-5.74a5.514 5.514 0 0 1 2.523-.743h.432a.923.923 0 0 0 1.084-.859c0-.864-1.823-2.493-5.5-2.511a17.9 17.9 0 0 0 -3.169.309 1.024 1.024 0 0 0 -.976.931.8.8 0 0 0 .788.8c.071 0 .144-.036.216-.035a17.688 17.688 0 0 1 3.17-.453c.143 0 1.583.08 1.581.44a1.835 1.835 0 0 1 -.867.716c-3.791 2.321-5.024 4.15-5.04 7.282 0 .612.066 1.3.134 2.016.1.937.243 1.8.275 2.665a15.95 15.95 0 0 0 -3.453-.413c-3.1-.015-6.162 1.194-6.173 3.426-.009 1.871 2.429 3.791 5.273 3.8 2.951.015 5.625-1.952 6.1-4.145a.794.794 0 0 0 .043-.282zm-1.832-.657c0 .108-.038.216-.038.324-.261 1.726-2.211 3.013-4.3 3-1.98-.01-3.45-1.2-3.446-2.033 0-1.043 1.809-1.9 4-1.888a15.064 15.064 0 0 1 3.781.6zm46.735 5.595c3.132.015 3.7-5.382 3.7-5.562a.944.944 0 0 0 -1-.94.818.818 0 0 0 -.867.715c-.3 2.446-.991 3.811-1.819 3.807a1.364 1.364 0 0 1 -.933-.617c-1.717-2.168-2.133-5.266-2.1-11.349v-.864c.008-1.728-1.137-3.065-3.368-3.076-2.556-.049-5.508-.063-8.5-.078-3.024-.015-6.083-.03-9-.009a.754.754 0 0 0 -.8.788.745.745 0 0 0 .752.8c3.06-.021 8.063 0 12.275.025l4.643.023c1.62.008 2.083.91 2.076 2.35-.019 3.887-.01 9.287 2.565 12.683a3.086 3.086 0 0 0 2.373 1.307zm-15.554-6.521a23.094 23.094 0 0 1 4.264 3.945.877.877 0 0 0 .718.4 1.174 1.174 0 0 0 1.086-1.146c0-.216-.03-1.152-4.765-4.523 1.809-1.935 4.091-4.8 4.095-5.595a1.064 1.064 0 0 0 -1.075-.977.9.9 0 0 0 -.794.464 31.233 31.233 0 0 1 -3.769 5.056c-1.973-1.3-4.7-2.9-5.385-2.906a.951.951 0 0 0 -.94.931.782.782 0 0 0 .5.723 34.554 34.554 0 0 1 4.559 2.578 25.48 25.48 0 0 1 -8.812 5.716.938.938 0 0 0 -.652.86.971.971 0 0 0 1 .941c.9.007 5.229-1.844 9.967-6.464zm14.564-18.934a.821.821 0 0 0 .868-.823.785.785 0 0 0 -.824-.8l-17.745-.088a9.024 9.024 0 0 0 1.236-2.585 1 1 0 0 0 -1.039-.905.78.78 0 0 0 -.758.464 22.7 22.7 0 0 1 -5.982 8.681.879.879 0 0 0 -.4.718.918.918 0 0 0 .932.869c1.223.006 3.979-3.94 5.067-5.627zm-3.045 4.413a.735.735 0 0 0 .759-.752.717.717 0 0 0 -.752-.76l-15.046-.074a.747.747 0 0 0 -.795.752.768.768 0 0 0 .788.76zm39.488.771a.927.927 0 0 0 -1-.941h-.18a34.042 34.042 0 0 1 -4.465.3 19.4 19.4 0 0 1 -4.065-.416.707.707 0 0 0 -.252-.037.991.991 0 0 0 -.977.967.973.973 0 0 0 .823.94 22.044 22.044 0 0 0 4.929.564c5.141.035 5.181-.765 5.184-1.374zm3.054 15.853a.972.972 0 0 0 -1.039-1.013c-.072 0-.144.036-.252.035a23.78 23.78 0 0 1 -3.1.237c-3.456-.017-6.4-1-8.3-3.245a1.235 1.235 0 0 0 -.9-.472.993.993 0 0 0 -1.012.931c-.006 1.223 4.115 4.915 10.63 4.948 3.603.02 3.966-.626 3.97-1.418zm-22.514 3.2a1.01 1.01 0 0 0 .978-1.183c0-.036 0-.072 0-.144 0-.18-.035-.324-.034-.468.012-2.376 1.972-5.75 3.134-7.724a.82.82 0 0 0 .11-.4.9.9 0 0 0 -.9-.833.842.842 0 0 0 -.722.465c-.363.61-1.562 2.764-2.035 3.769a.639.639 0 0 1 -.362.466c-.324 0-.348-2.377-.347-2.485.021-4.428 1.673-10.827 2.374-14.387 0-.072.037-.144.037-.216a1.033 1.033 0 0 0 -1.075-.941.92.92 0 0 0 -.94.931c-.268 3.167-2.17 9.2-2.2 15.4a22.775 22.775 0 0 0 .9 6.772 1.213 1.213 0 0 0 1.079.982zm56.922-1.555a1.389 1.389 0 0 0 1.014-1.255 1 1 0 0 0 -1.038-1.049 1.667 1.667 0 0 0 -.649.141 26.663 26.663 0 0 1 -9.3 1.934c-4.392-.022-4.451-2.542-4.436-5.6.013-2.736.244-5.722.438-8.457.153-2.015.235-4.03.245-5.866.016-3.348.022-4.5-1.274-4.506a.991.991 0 0 0 -1.013 1.039v.216a30.9 30.9 0 0 1 .161 3.816c-.009 1.728-.09 3.671-.172 5.579-.159 3.023-.353 6.009-.367 8.781-.018 3.707.685 6.987 6.661 7.016a30.979 30.979 0 0 0 9.727-1.785zm37.186.472a1.409 1.409 0 0 0 -1.649-1.2c-6.372-.031-10.778-4.337-10.754-9.124.03-6.047 6.928-10.657 12.687-10.628a8.142 8.142 0 0 1 .936.041h.4c1.044.005 1.55-.425 1.553-1.145a1.281 1.281 0 0 0 -1.506-1.159 26.779 26.779 0 0 0 -9.477 2.149c-1.623.64-8.331 3.162-12.368 4.186a1.229 1.229 0 0 0 -1.013 1.147 1.11 1.11 0 0 0 1.254 1.05c1.548.008 8.655-3.233 9.16-3.482a1.328 1.328 0 0 1 .4-.106c.108 0 .144 0 .144.073a.708.708 0 0 1 -.29.358 11.181 11.181 0 0 0 -3.71 7.757c-.026 5.219 4.123 10.639 12.4 11.292h.216a1.413 1.413 0 0 0 1.614-1.205zm29.992-.391a4.882 4.882 0 0 0 -5.052-4.813c-2.088-.01-3.21 1.244-3.217 2.648-.009 1.908 1.96 4 6.424 4.027 7.091.035 10.535-5.023 10.554-8.731.016-3.2-2.635-5.952-7.17-5.974a12.009 12.009 0 0 0 -6.633 2.019c2.822-2.974 6.3-7.06 8.686-9.568a1.687 1.687 0 0 0 .51-1.222 1.384 1.384 0 0 0 -1.5-1.375 5.191 5.191 0 0 0 -1.838.5 42.058 42.058 0 0 1 -8.578 2.153 1 1 0 0 0 -.9.968.965.965 0 0 0 1.039.977c1.367.006 7.208-1.909 8.615-2.513a1.344 1.344 0 0 1 .5-.142c.072 0 .108 0 .107.073a122.609 122.609 0 0 1 -11.583 13.153 1.415 1.415 0 0 0 -.546 1.041 1.117 1.117 0 0 0 1.147 1.05 1.152 1.152 0 0 0 .975-.5 12.207 12.207 0 0 1 9.527-4.992c3.42.017 5.57 1.935 5.558 4.419-.018 2.159-1.836 5.821-6.628 6.806zm-1.765.279c-3.528-.018-4.71-1.283-4.7-2.291a1.324 1.324 0 0 1 1.554-1.252c1.504.011 2.976.846 3.143 3.547zm-445.332 44.209q.043 2 .086 4.428v.611c-.031 6.336-2.72 11.29-8.419 13.673a1.026 1.026 0 0 0 -.76.932 1.04 1.04 0 0 0 1.075.942 1.382 1.382 0 0 0 .613-.141c6.278-2.921 9.435-7.909 9.468-14.82 0-.4 0-.756-.031-1.152-.063-1.8-.127-3.42-.12-4.788 1.117-.174 2.306-.349 3.35-.487a1.1 1.1 0 0 0 1.085-1.039.877.877 0 0 0 -1-.869c-.072 0-.072 0-3.423.559.009-1.8.088-3.131.093-4.175s-.063-1.836-1.179-1.841a.982.982 0 0 0 -1.085 1v.18c.1 1.009.131 2.772.191 5.184-.757.141-1.406.281-1.91.387a21.626 21.626 0 0 1 -5.474.549 1.013 1.013 0 0 0 -1.192.93 1.023 1.023 0 0 0 1.075 1.013 39.11 39.11 0 0 0 7.557-1.076zm-13.755 15.518a1.025 1.025 0 0 0 1.013-1.075 1.449 1.449 0 0 0 -.105-.541 28.18 28.18 0 0 1 -1.535-9.834 49.779 49.779 0 0 1 .388-5.757c.525-4.173.562-4.533.563-4.713a.986.986 0 0 0 -1.075-.941.961.961 0 0 0 -1.013.931c-.115 1.511-.3 2.734-.455 4.713-.153 1.727-.271 3.922-.283 6.19-.017 3.527.252 7.308 1.39 10.121a1.241 1.241 0 0 0 1.112.906zm63.506-15.416a.987.987 0 0 0 .941-.968c.006-1.187-3.8-3.618-4.446-3.621a.884.884 0 0 0 -.939.751.768.768 0 0 0 .5.65 15.463 15.463 0 0 1 3.406 2.9.635.635 0 0 0 .538.288zm-3.429 2.543a1.048 1.048 0 0 0 .941-1c0-1.152-3.654-3.654-4.338-3.657a.822.822 0 0 0 -.9.716.791.791 0 0 0 .465.65 15.14 15.14 0 0 1 3.261 2.968.692.692 0 0 0 .571.323zm-8.4 2.622c-.686.429-2.021 1.034-3.1 1.677-3.827 2.285-5.423 4.761-5.434 6.92-.014 2.916 2.925 5.558 8.72 5.587 1.979.01 7.023-.793 7.032-2.665a1.058 1.058 0 0 0 -1.111-1.014 1.815 1.815 0 0 0 -1.009.355 11.038 11.038 0 0 1 -5.37 1.306c-2.916-.015-6.366-1.04-6.353-3.667.008-1.656 1.529-3.556 4.308-5.126 1.625-.928 4.691-2.245 5.919-3a1.489 1.489 0 0 0 .833-1.184.991.991 0 0 0 -.967-.976.943.943 0 0 0 -.432.106 3.235 3.235 0 0 1 -1.3.425c-2.664-.013-3.269-1.312-3.259-3.436 0-.863.081-1.763.157-2.554.115-1.4.156-2.519.161-3.455.016-3.276-.23-4.393-1.418-4.4a.953.953 0 0 0 -1.013.967.89.89 0 0 0 .035.288 17.471 17.471 0 0 1 .341 3.853c0 .864-.046 1.944-.16 3.2q-.114 1.134-.119 2.267c-.02 2.92 1.339 4.331 3.539 4.521zm45.913-2.508a21.451 21.451 0 0 1 4.969-.516c1.044.006 1.586-.424 1.589-1.036a1.182 1.182 0 0 0 -1.326-1.086c-3.744.053-8.287 1.615-11.424 2.751a.913.913 0 0 1 -.253.071.076.076 0 0 1 -.071-.072.406.406 0 0 1 .145-.216c1.665-1.935 4.49-5.413 6.665-8.5a2.954 2.954 0 0 0 .656-1.724 1.607 1.607 0 0 0 -1.684-1.556 3.952 3.952 0 0 0 -1.442.46 23.674 23.674 0 0 1 -6.09 1.374 1.087 1.087 0 0 0 -1.047 1.036 1 1 0 0 0 1.147.941 28.3 28.3 0 0 0 6.273-1.8 1.257 1.257 0 0 1 .4-.106.144.144 0 0 1 .179.144c0 .432-3.374 5.419-6.488 9.039-1.122 1.327-1.881 1.863-4.478 3.074a1.276 1.276 0 0 0 -.906 1.111 1.089 1.089 0 0 0 1.147.978 1.678 1.678 0 0 0 .865-.248 26.261 26.261 0 0 1 5.159-2.278c.036 0 .072 0 .072.036a.52.52 0 0 1 -.182.287 7.3 7.3 0 0 0 -1.931 4.814c-.032 6.551 8.695 10.482 10.1 10.489a1.231 1.231 0 0 0 1.337-1.145 1.36 1.36 0 0 0 -1.253-1.23c-4.531-1-8.436-4.794-8.417-8.537.003-2.74 2.576-5.751 6.286-6.56zm32.337 5.7a.394.394 0 0 1 .109-.215c.327-.539 5.552-8.936 7.219-11.267 1.7-2.332 1.849-2.655 1.851-3.051a1.185 1.185 0 0 0 -1.182-1.122 1.052 1.052 0 0 0 -.939.572c-.364.718-1.342 2.117-1.923 3.122-1.67 2.835-3.449 5.886-5.409 9.116-4.972 8.147-6.281 10.876-6.284 11.524a.98.98 0 0 0 1.108 1.007c.576 0 1.225-.354 1.956-2.546 1.827-5.39 5.976-7.314 7.415-7.307.828 0 1.33.547 1.324 1.663a12.985 12.985 0 0 1 -.736 3.308 5.771 5.771 0 0 0 -.26 1.654c0 .72.164 3.241 4.411 3.262 8.531.042 12.648-9.945 12.654-11.24a1.138 1.138 0 0 0 -2.267-.156c-.809 3.416-4.69 9.444-10.269 9.417-1.548-.008-2.481-.625-2.475-1.884a3.366 3.366 0 0 1 .147-.971 11.922 11.922 0 0 0 .7-3.38c.012-2.411-1.244-3.209-2.756-3.217a6.8 6.8 0 0 0 -4.147 1.6.408.408 0 0 1 -.217.143zm47.467-11.032a70.292 70.292 0 0 1 -6.863 12.025 1.429 1.429 0 0 0 -.292.826.826.826 0 0 0 .9.8 1.361 1.361 0 0 0 1.191-.714 104.221 104.221 0 0 0 7.267-13.715c1.84-.819 3.175-1.532 3.18-2.4a.807.807 0 0 0 -.824-.8.977.977 0 0 0 -.613.213 10.685 10.685 0 0 1 -1.264.822 12.694 12.694 0 0 0 .336-2.482.952.952 0 0 0 -1-1.085.9.9 0 0 0 -.977.859 19.076 19.076 0 0 1 -.377 3.6c-3.535 1.531-4.545 1.85-5.625 1.844a2.478 2.478 0 0 1 -.9-.148 1.209 1.209 0 0 0 -.5-.074.869.869 0 0 0 -.905.9c0 .5.391 1.118 2.01 1.126a13.649 13.649 0 0 0 5.253-1.599zm8.152 18.4a13.948 13.948 0 0 1 4.018 2.648 1.132 1.132 0 0 0 .754.364 1.043 1.043 0 0 0 .978-1.076c.007-1.547-4.411-3.369-5.669-3.807-.066-1.116-.241-2.305-.38-3.206a11.778 11.778 0 0 1 -.17-2.124c.014-2.736 1.245-4.17 4.024-5.74a5.518 5.518 0 0 1 2.524-.743h.432a.924.924 0 0 0 1.084-.859c0-.863-1.824-2.492-5.5-2.51a17.793 17.793 0 0 0 -3.169.308 1.026 1.026 0 0 0 -.977.931.8.8 0 0 0 .788.8c.072 0 .144-.036.216-.035a17.682 17.682 0 0 1 3.17-.452c.144 0 1.584.079 1.582.439a1.828 1.828 0 0 1 -.868.716c-3.791 2.321-5.024 4.151-5.039 7.282 0 .612.066 1.3.134 2.017.1.936.243 1.8.275 2.665a15.828 15.828 0 0 0 -3.454-.413c-3.1-.016-6.161 1.193-6.172 3.425-.009 1.872 2.429 3.791 5.273 3.805 2.951.015 5.625-1.952 6.1-4.145a.8.8 0 0 0 .043-.294zm-1.833-.657c0 .108-.037.216-.037.324-.261 1.727-2.211 3.013-4.3 3-1.979-.009-3.449-1.2-3.445-2.032 0-1.044 1.809-1.9 4-1.888a15.009 15.009 0 0 1 3.779.592zm49.789-14.836a.927.927 0 0 0 -1-.941h-.18a34.042 34.042 0 0 1 -4.465.3 19.4 19.4 0 0 1 -4.065-.416.707.707 0 0 0 -.252-.037.991.991 0 0 0 -.977.967.973.973 0 0 0 .823.94 22.051 22.051 0 0 0 4.929.564c5.141.023 5.181-.766 5.184-1.381zm3.054 15.853a.972.972 0 0 0 -1.039-1.013c-.072 0-.144.036-.252.035a23.78 23.78 0 0 1 -3.1.237c-3.456-.017-6.4-1-8.3-3.245a1.235 1.235 0 0 0 -.9-.472.993.993 0 0 0 -1.012.931c-.006 1.223 4.115 4.915 10.63 4.948 3.603.013 3.966-.633 3.97-1.425zm-22.514 3.2a1.01 1.01 0 0 0 .978-1.183c0-.036 0-.072 0-.144 0-.18-.035-.324-.034-.468.012-2.376 1.972-5.75 3.134-7.724a.82.82 0 0 0 .11-.4.9.9 0 0 0 -.9-.833.843.843 0 0 0 -.722.465c-.363.61-1.562 2.764-2.034 3.769a.642.642 0 0 1 -.363.466c-.324 0-.348-2.377-.347-2.485.021-4.428 1.673-10.827 2.374-14.387 0-.072.037-.144.038-.216a1.035 1.035 0 0 0 -1.076-.941.92.92 0 0 0 -.94.931c-.268 3.167-2.17 9.2-2.2 15.4a22.775 22.775 0 0 0 .9 6.772 1.212 1.212 0 0 0 1.079.975zm66.358-9.679a.822.822 0 0 0 .868-.824.8.8 0 0 0 -.86-.832l-9.755-.012.018-3.528c1.548.008 3.06-.02 4.392-.05 3.311-.019 3.356-1.675 3.368-4.195.007-1.439-.019-3.491-3.366-3.58-1.331-.042-2.807-.05-4.355-.057l.016-3.2 8.638.079a.822.822 0 0 0 .868-.824.8.8 0 0 0 -.859-.832l-25.845-.128a.8.8 0 0 0 -.868.824.822.822 0 0 0 .86.832l8.567.006-.016 3.2c-1.4-.007-2.736.022-3.96.016-3.455.019-3.535 1.639-3.548 4.122-.018 3.672.63 3.675 7.469 3.709l-.017 3.563-9.575-.083a.8.8 0 0 0 -.868.824.822.822 0 0 0 .86.832zm.2 9.612a1.115 1.115 0 0 0 1.085-1.111c.007-1.331-4.617-5.35-5.913-5.356a.855.855 0 0 0 -.9.823.752.752 0 0 0 .357.614 14.572 14.572 0 0 1 4.585 4.558.949.949 0 0 0 .788.469zm-15.946-7.35a14.162 14.162 0 0 1 4.2 3.08.87.87 0 0 0 .646.327 1.088 1.088 0 0 0 1.013-1.038c.007-1.3-4.516-3.8-5.344-3.806a.907.907 0 0 0 -.9.859.6.6 0 0 0 .387.575zm9.523 4.075a.939.939 0 0 0 -1-.905.875.875 0 0 0 -.94.9c-.123 2.987-1.2 3.306-5.884 3.282-4.211-.02-4.423-.813-4.412-3.045 0-1.044.048-2.556.09-3.743a.832.832 0 0 0 -.932-.761.868.868 0 0 0 -.976.787c-.079 1.584-.088 3.276-.094 4.571-.018 3.672 2.968 3.831 6.28 3.847 5.645.024 7.844-.613 7.868-4.933zm-21.906 3.959c1.728.008 5.386-4.545 5.393-5.985a1.059 1.059 0 0 0 -1.075-.941.786.786 0 0 0 -.759.572 9.724 9.724 0 0 1 -4.018 4.588.942.942 0 0 0 -.58.825 1 1 0 0 0 1.037.942zm22.354-21.811c2.015.01 2.01 1.162 2 2.457-.007 1.4-.119 2.34-1.955 2.33-1.116 0-2.484.024-4 .017l.024-4.824zm-5.68-1.576-5.147-.026.016-3.2 5.147.025zm-.031 6.371-5.148-.025.024-4.824 5.148.026zm-.025 5.039-5.148-.025.018-3.528 5.147.026zm-6.85-5.073c-1.368-.007-2.664-.049-3.672-.054-1.943-.082-1.939-.91-1.931-2.565.006-1.152.047-2.232 1.955-2.223l3.671.019zm60.083 7.208a1.248 1.248 0 0 0 1.194-1.362c.016-3.2-3.71-6.821-5.86-8.632a1.532 1.532 0 0 0 -.9-.364.932.932 0 0 0 -.976.895.807.807 0 0 0 .321.614c2.546 2.028 4.871 4.991 5.217 7.836a1.045 1.045 0 0 0 1.002 1.014zm-13.519 4.145c.295-1.546.843-3.164 1.139-4.746 0-.072.036-.108.037-.18a1.069 1.069 0 0 0 -1.075-1.013.923.923 0 0 0 -.867.716c-.4 1.294-.662 2.7-1.135 3.846a1.38 1.38 0 0 1 -1.265 1.037c-.576 0-4.6-.814-6.144-9.677-.21-1.189-.347-2.629-.557-3.782a1.065 1.065 0 0 0 -1.039-.977 1.013 1.013 0 0 0 -1.049 1c0 .288.631 3.387.7 3.819.562 2.847 1.76 8.036 5.023 10.572a5.859 5.859 0 0 0 3.52 1.423 2.552 2.552 0 0 0 2.71-2.037zm43.323-2.99a14.18 14.18 0 0 1 1.543.908.974.974 0 0 0 .575.183 1.045 1.045 0 0 0 1.013-1.075c0-.792-.857-1.336-3.049-2.139.161-3.383.394-6.8.591-10.292.08-1.619.23-2.806.236-4.03.006-1.152-.062-2.016-1.142-2.022a.962.962 0 0 0 -1.013 1c-.006 1.26.061 2.232.055 3.6 0 .432 0 .936-.044 1.512-.086 2.915-.318 6.189-.48 9.644-.647-.183-1.258-.33-1.869-.477-.971-.257-1.508-.691-1.5-1.3 0-.792 1.415-2.3 2.137-2.689a1.419 1.419 0 0 0 .8-1.292c.013-2.556-5.66-5.536-6.56-5.54a.952.952 0 0 0 -1.048.859.923.923 0 0 0 .716.867c1.329.475 4.6 2.219 4.59 3.514a1.849 1.849 0 0 1 -.691 1.293c-1.375 1.469-1.774 2.115-1.779 3.159-.006 1.188.853 2.272 2.758 2.857.862.256 1.617.476 2.372.732-.042 1.115-.048 2.3-.053 3.419v.072c-.022 4.5 2.379 6.707 5.331 6.722 2.843.014 6.921-2.054 6.941-6.193.013-2.628-1.626-5.948-5.928-9.533a1.363 1.363 0 0 0 -.862-.328.935.935 0 0 0 -1.012.823 1.127 1.127 0 0 0 .535.9c3.693 3.006 5.227 5.821 5.216 8.017-.016 3.311-3.513 4.374-4.809 4.367-2.16-.01-3.626-1.853-3.611-4.913-.008-.86-.001-1.76.039-2.624zm56.972-4.253c.026-5.292-4.234-10.064-11.217-10.1-7.955-.039-14 6.626-14.029 12.746-.017 3.347 1.877 6.128 4.109 6.139a3.563 3.563 0 0 0 2.525-1.175c2.858-2.794 7.39-9.359 7.413-13.966a1.282 1.282 0 0 0 -1.252-1.59.971.971 0 0 0 -.978 1.111v.072.36c-.028 5.579-5.348 11.528-6.361 12.423a2.123 2.123 0 0 1 -1.3.606c-1.584-.008-2.257-2.315-2.248-4.115.028-5.651 6.207-10.444 10.276-10.82a13.965 13.965 0 0 1 1.693-.1c5.723.029 9.2 3.825 9.174 8.217-.021 4.319-3.394 9.45-11.535 10.67a1.163 1.163 0 0 0 -1.157 1.038 1.083 1.083 0 0 0 1.182 1.049c2.662.016 13.658-3.458 13.703-12.564zm45.376 4.112a1.135 1.135 0 0 0 1.086-1.183c.013-2.7-6.444-7.3-8.243-7.312a.89.89 0 0 0 -.905.9.689.689 0 0 0 .465.686c2.982 1.058 5.884 3.88 6.7 6.188a.963.963 0 0 0 .895.722zm-17.054-9.012c1.491-3.052 1.86-4.814 1.863-5.534a1.01 1.01 0 0 0 -1.075-.941.909.909 0 0 0 -.976.787 19.287 19.287 0 0 1 -2.082 6.145 42.176 42.176 0 0 1 -6.412.976h-.324a.905.905 0 0 0 -.94.931.971.971 0 0 0 1.039 1.013 32.733 32.733 0 0 0 5.836-1.051 134.339 134.339 0 0 1 -8.888 13.922 1.248 1.248 0 0 0 -.255.719.913.913 0 0 0 1 .869 1.247 1.247 0 0 0 1.119-.607c2.395-3.875 6.494-10.118 9.255-15.4q.6-.1.973-.211a3.568 3.568 0 0 1 1.009-.139c1.584.008 2.009 1.342 2 3.357-.041 8.279-2.281 9.96-4.261 9.95a5.266 5.266 0 0 1 -2.444-.732.954.954 0 0 0 -.431-.11 1.038 1.038 0 0 0 -1.013 1.039c-.006 1.08 2.15 1.846 3.842 1.855 5.435.027 6.224-6.629 6.248-11.488.009-1.764-.08-5.58-3.536-5.6a4.443 4.443 0 0 0 -.936.1zm42.569-3.245a70.187 70.187 0 0 1 -6.863 12.025 1.443 1.443 0 0 0 -.292.826.827.827 0 0 0 .9.8 1.363 1.363 0 0 0 1.192-.714 104.4 104.4 0 0 0 7.267-13.715c1.839-.819 3.175-1.532 3.179-2.4a.807.807 0 0 0 -.824-.8.979.979 0 0 0 -.613.213 10.435 10.435 0 0 1 -1.264.822 12.684 12.684 0 0 0 .336-2.482.952.952 0 0 0 -1-1.085.9.9 0 0 0 -.976.859 19 19 0 0 1 -.378 3.6c-3.535 1.53-4.545 1.849-5.624 1.844a2.488 2.488 0 0 1 -.9-.149 1.22 1.22 0 0 0 -.5-.074.869.869 0 0 0 -.905.9c0 .5.391 1.118 2.011 1.126a13.632 13.632 0 0 0 5.252-1.595zm8.152 18.4a13.968 13.968 0 0 1 4.019 2.648 1.125 1.125 0 0 0 .754.364 1.041 1.041 0 0 0 .977-1.075c.007-1.548-4.411-3.37-5.669-3.808-.066-1.116-.24-2.305-.38-3.205a11.786 11.786 0 0 1 -.169-2.125c.013-2.736 1.244-4.169 4.024-5.74a5.514 5.514 0 0 1 2.523-.743h.432a.922.922 0 0 0 1.084-.858c0-.864-1.823-2.493-5.5-2.511a17.793 17.793 0 0 0 -3.169.308 1.025 1.025 0 0 0 -.976.931.8.8 0 0 0 .787.8c.072 0 .145-.035.217-.035a17.682 17.682 0 0 1 3.17-.452c.143 0 1.583.08 1.581.439a1.829 1.829 0 0 1 -.867.716c-3.791 2.321-5.024 4.151-5.04 7.282 0 .612.066 1.3.134 2.017.1.936.243 1.8.275 2.665a15.881 15.881 0 0 0 -3.453-.413c-3.1-.015-6.162 1.193-6.173 3.425-.009 1.872 2.429 3.791 5.273 3.806 2.951.014 5.625-1.952 6.1-4.146a.794.794 0 0 0 .044-.291zm-1.832-.657c0 .108-.038.216-.038.324-.261 1.727-2.211 3.013-4.3 3-1.98-.01-3.45-1.205-3.446-2.033 0-1.044 1.809-1.9 4-1.888a15.017 15.017 0 0 1 3.782.596zm-522.321 62.637v-.054a1.527 1.527 0 0 0 -1.642-1.548 1.475 1.475 0 0 0 -1.6 1.587c.048 1.485.095 3.025.087 4.619-.006 1.265-.068 2.585-.13 3.959v.11a1.527 1.527 0 0 0 1.642 1.548 1.354 1.354 0 0 0 1.491-1.147c.115-.935-.044-2.2.286-2.2a.435.435 0 0 1 .219.167 12.7 12.7 0 0 0 9.44 3.731c7.7.038 12.4-5.108 12.426-10.553.019-3.9-2.27-8.04-7.645-10.981-2.249-1.221-5.65-2.833-7.954-4-3.292-1.611-4.764-4.148-4.752-6.513.016-3.189 2.78-6.09 7.509-6.067 5.774.029 8.12 3.78 8.114 5.1 0 .5 0 .33-.061 1.209v.11a1.5 1.5 0 0 0 1.588 1.493 1.53 1.53 0 0 0 1.6-1.587c-.047-1.65-.1-2.86-.09-4.07 0-.99.065-2.034.126-3.3 0-.055 0-.055 0-.11a1.46 1.46 0 0 0 -1.588-1.437 1.416 1.416 0 0 0 -1.49 1.092c-.057.33 0 .99-.28.989a.8.8 0 0 1 -.219-.112 12.7 12.7 0 0 0 -7.743-2.238c-6.874-.034-10.745 4.347-10.769 9.076-.017 3.41 2.055 6.994 6.554 9.161 2.688 1.279 5.486 2.777 7.9 4.109 3.949 2.219 5.638 5.252 5.624 8.112-.019 3.9-3.336 7.3-8.615 7.326-7.039-.035-10.039-4.722-10.033-6.535zm43.5 10.938c7.314.037 12.84-5.215 12.879-13.134.038-7.644-5.434-13.171-12.748-13.207s-12.73 5.437-12.768 13.081c-.036 7.918 5.326 13.224 12.641 13.26zm.014-2.914c-5.279-.026-9.493-4.172-9.463-10.331.031-6.214 4.285-10.262 9.564-10.236s9.549 4.117 9.518 10.331c-.025 6.158-4.335 10.258-9.614 10.236zm45.823-35.3a2.641 2.641 0 0 0 -2.682-2.6 2.566 2.566 0 0 0 -2.6 2.572 2.361 2.361 0 0 0 2.571 2.652 2.483 2.483 0 0 0 2.716-2.623zm2.728 37.794a1.544 1.544 0 1 0 .015-3.08h-.055c-.825 0-1.045.05-1.925.045a.966.966 0 0 1 -.985-1.049c.007-1.375.014-2.86.021-4.29.02-4.014.1-8.193.17-12.043 0-.055 0-.11 0-.165.011-2.364-.968-4.514-3.937-4.528-1.21-.006-1.1-.061-2.145-.066a1.512 1.512 0 0 0 -1.548 1.587 1.412 1.412 0 0 0 1.423 1.547h.11c.33 0 .495-.053.825-.051 1.485.007 2.031.78 2.022 2.539-.024 4.785-.05 10.174-.131 15.4a.971.971 0 0 1 -1.05 1.094c-.88 0-1.21-.061-1.925-.064h-.055a1.53 1.53 0 0 0 -1.657 1.531 1.5 1.5 0 0 0 1.7 1.549c1.32-.049 2.86-.1 4.4-.089s3.189.071 4.674.133h.055zm-16.388-.136a1.516 1.516 0 0 0 1.6-1.532 1.407 1.407 0 0 0 -1.643-1.438c-.825.051-.99.05-1.87.046a.957.957 0 0 1 -1.04-.941c-.025-6.159.031-17.487.031-17.487 0-.66.059-.77.609-.767l5.444.027a1.429 1.429 0 0 0 1.437-1.478 1.4 1.4 0 0 0 -1.422-1.492l-5.334-.026c-.55 0-.715-.059-.713-.554-.051-.715-.045-1.925-.039-3.244 0-.55.006-1.1.009-1.7.183-3.574 2.342-6.478 5.916-6.46h.5.165a1.523 1.523 0 0 0 1.657-1.476c.007-1.485-1.917-1.55-2.467-1.553-4.289-.021-8.7 3.2-8.9 9.14 0 .5 0 .935-.007 1.43-.009 1.76.039 3.245.036 3.795s-.168.6-.773.6l-3.519-.017a1.443 1.443 0 0 0 -1.438 1.532 1.385 1.385 0 0 0 1.423 1.437l3.52.018c.659 0 .769.113.766.773 0 0-.025 4.95-.05 10.119-.013 2.584-.026 5.224-.037 7.369a.941.941 0 0 1 -.994.93c-.88 0-1.21-.061-1.925-.065a1.515 1.515 0 0 0 -1.6 1.532 1.415 1.415 0 0 0 1.533 1.437h.11c1.32-.048 2.805-.1 4.344-.088s3.135.07 4.619.132h.055zm32.312-37.51a2.508 2.508 0 0 0 -2.682-2.543 2.555 2.555 0 0 0 -2.6 2.517 2.426 2.426 0 0 0 2.571 2.707 2.562 2.562 0 0 0 2.711-2.681zm-3.406 32.649c-.01 1.98.1 2.7.087 4.51 0 .6-.006 1.32-.066 2.254-.19 5.169-3.233 8.893-7.251 9.533a1.406 1.406 0 0 0 -1.217 1.424 1.515 1.515 0 0 0 1.587 1.548c3.245.016 9.916-3.526 10.068-11.994 0-.605.006-1.21.009-1.76.011-2.254-.036-3.9-.029-5.334 0 0-.033-4.29-.011-8.909.012-2.31.024-4.729.089-6.764v-.11a4.153 4.153 0 0 0 -4.157-4.42c-1.265-.006-1.045-.06-2.09-.065a1.573 1.573 0 0 0 -1.6 1.642 1.442 1.442 0 0 0 1.478 1.492h.11c.385 0 .88-.05 1.155-.049 1.264.116 1.81.944 1.8 2.539-.033 6.379.037 14.463.037 14.463zm36.051 5.293a1.49 1.49 0 0 0 1.493-1.533 1.4 1.4 0 0 0 -.929-1.379c-2.2-.781-2.574-2.1-2.554-6.117.01-2.09.134-4.949.308-6.763a14.714 14.714 0 0 0 .063-1.539c.03-6.159-3.423-8.431-8.537-8.456-4.729-.024-9.36 2.318-9.371 4.408a1.491 1.491 0 0 0 1.533 1.492 1.532 1.532 0 0 0 1.157-.544 8.66 8.66 0 0 1 6.447-2.608c4.455.022 5.708 2.393 5.693 5.418 0 .275-.058.6-.06.879 0 .385-.222.549-.883.656a88.344 88.344 0 0 0 -10.184 2.2c-4.076 1.245-5.905 4.04-5.918 6.79-.019 3.8 3.317 7.606 8.871 7.633 3.19.016 6.717-1.562 8.38-4.193a.294.294 0 0 1 .221-.164.3.3 0 0 1 .218.276 4.68 4.68 0 0 0 4.051 3.544zm-12.912-2.374c-3.684-.018-5.872-2.339-5.861-4.648.019-3.85 4.589-4.927 13.229-6.259h.165a.491.491 0 0 1 .547.607v.715c-.046 8.47-5.276 9.599-8.081 9.585zm45.838-.8a13.232 13.232 0 0 1 3.694 2.754 1.065 1.065 0 0 0 .754.364 1.106 1.106 0 0 0 1.014-1.111c0-1.044-2.507-2.64-4.446-3.55-.144-.073-.288-.109-.431-.182a4.421 4.421 0 0 0 .075-.72c0-.144 0-.324 0-.467.007-1.332-.095-2.593-.2-3.889-.17-2.089-.371-5.041-.393-7.993 1.009-.175 2.162-.349 3.386-.487a1.027 1.027 0 0 0 1.049-.967.917.917 0 0 0 -.967-.941c-.288 0-2.45.348-3.458.523.043-1.511.158-2.987.309-4.282v-.072a.941.941 0 0 0 -1.04-.833c-1.08 0-1.082.463-1.107 5.574-1.261.282-9.369 2.006-9.379 4.057a1.024 1.024 0 0 0 .967 1.013 1.044 1.044 0 0 0 .649-.285c1.229-1.074 3.466-2.142 7.79-2.985.057 3.1.221 6.228.393 7.921.067.972.135 1.837.13 2.664a10 10 0 0 1 -.079 1.476 15.18 15.18 0 0 0 -4.316-.705c-2.447-.013-5.655.692-5.667 3.247-.009 1.764 1.925 3.789 4.768 3.8a7.635 7.635 0 0 0 6.39-3.748zm-18.305 3.9a.985.985 0 0 0 1.013-1.075 5.494 5.494 0 0 0 -.068-.828c0-.072 0-.18 0-.288.011-2.232 2.262-6.108 3.205-7.687a.93.93 0 0 0 .11-.4.942.942 0 0 0 -.859-.94.859.859 0 0 0 -.722.5c-.581 1-1.781 3.375-2.254 4.453a.766.766 0 0 1 -.327.5c-.18 0-.424-1.514-.415-3.35a47.257 47.257 0 0 1 .682-6.835c.445-2.662 1.181-5.862 1.44-7.408 0-.072 0-.144 0-.18a1.013 1.013 0 0 0 -1.039-1.013.99.99 0 0 0 -.977 1c-.263 2.266-1.145 6.041-1.6 10.107a40.882 40.882 0 0 0 -.312 4.713 24.991 24.991 0 0 0 1.042 7.673 1.215 1.215 0 0 0 1.08 1.064zm16.545-4.634a5.742 5.742 0 0 1 -4.8 2.928c-1.908-.009-2.91-1.238-2.906-2.03 0-.324.153-1.691 3.68-1.674a11.66 11.66 0 0 1 4.025.78zm31.183-10.746c-.023 4.729-.043 8.744-.108 10.668-.065 2.144-1.278 2.743-2.818 2.736a15.174 15.174 0 0 1 -2.583-.343h-.22a1.2 1.2 0 0 0 -1.216 1.259c-.008 1.65 2.521 1.772 4.006 1.779 3.794.019 5.565-2.117 5.579-5.031v-.11c-.047-1.76-.091-3.96-.08-6.1.012-2.475.108-10.668.143-17.817.018-3.63.034-6.929-.01-9.184-.088-4.29-2.783-4.358-6.742-4.378-4.345-.021-6.93.131-6.951 4.31-.016 3.355.127 7.645.1 12.154-.069 13.968-1.921 21.6-4.583 26.1a1.48 1.48 0 0 0 -.169.659 1.417 1.417 0 0 0 1.479 1.328c2.969.014 5.059-11.194 5.588-18.066zm27.08 17.567c4.784.023 7.21-1.285 7.249-9.148v-.44a1.311 1.311 0 0 0 -1.368-1.327c-1.32-.007-1.38 1.038-1.384 1.973-.029 5.829-1.406 6.152-3.88 6.14-2.97-.015-2.967-.565-2.945-5.129.034-6.874.206-19.357.242-26.616l.02-4.069c-.088-4.455-2.836-4.688-7.236-4.71-5.389-.027-8.194.014-8.219 5.074-.016 3.244.131 6.984.111 10.889-.044 9.074-.919 19.078-6.4 25.925a1.244 1.244 0 0 0 -.279.824 1.57 1.57 0 0 0 1.588 1.437 1.717 1.717 0 0 0 1.378-.708c5.976-7.5 6.585-19.38 6.636-29.663l.042-8.524c.014-2.75 1.828-2.741 4.688-2.727 3.574.018 4.782.409 4.771 2.664l-.011 2.309c-.032 6.434-.209 19.907-.247 27.716l-.015 3.024c-.007 2.259.694 5.067 5.258 5.09zm-35.26-31.681c.013-2.695-.029-5.279-.018-7.534.008-1.595.727-2.361 2.157-2.409l3.794.019c1.7.063 2.141.835 2.188 2.43.046 1.815.033 4.455.073 7.535zm8.191 11.7-8.414-.041c.181-3.134.2-6.269.211-9.293l8.249.041zm76.951 9.51a1.142 1.142 0 0 0 1.107-1.26 1.114 1.114 0 0 0 -1.094-1.27l-8.579-.043.012-2.474-.038-14.463c4.8 8.438 13.171 16.674 19.253 21.158a2.064 2.064 0 0 0 1.153.391 1.71 1.71 0 0 0 1.768-1.586 1.733 1.733 0 0 0 -.873-1.434 66.923 66.923 0 0 1 -19.971-20.612l17.707.253a1.268 1.268 0 0 0 1.326-1.314 1.283 1.283 0 0 0 -1.313-1.381l-18.917-.093.051-10.449a1.449 1.449 0 0 0 -2.859-.014l-.052 10.448-19.027-.094a1.419 1.419 0 0 0 -1.437 1.423 1.262 1.262 0 0 0 1.424 1.272l17.763-.077a68.448 68.448 0 0 1 -20.126 21.9 1.463 1.463 0 0 0 .756 2.753 1.8 1.8 0 0 0 1.157-.434 80.861 80.861 0 0 0 19.576-21.791l-.18 14.133-.012 2.474-8.524-.042a1.2 1.2 0 0 0 -1.162 1.314 1.108 1.108 0 0 0 1.149 1.216l8.524.042-.053 10.723a1.45 1.45 0 0 0 2.86.015l.053-10.724zm69.344-8.951a1.2 1.2 0 0 0 1.216-1.259 1.167 1.167 0 0 0 -1.2-1.271l-13.912-.069c2.655-3.121 6.037-8.714 6.041-9.539a1.681 1.681 0 0 0 -1.7-1.493 1.211 1.211 0 0 0 -1.214.819 44.332 44.332 0 0 1 -6.045 10.2l-3.41-.017c.011-2.145.039-7.7.119-12.813l16.552.082a1.2 1.2 0 0 0 1.216-1.259 1.21 1.21 0 0 0 -1.2-1.326l-16.552-.082.092-7.588a1.335 1.335 0 0 0 -1.478-1.272 1.257 1.257 0 0 0 -1.381 1.2l-.038 7.643-16.608-.082a1.255 1.255 0 0 0 -1.271 1.314 1.181 1.181 0 0 0 1.259 1.271l16.607.082-.008 12.814-19.8-.1a1.241 1.241 0 0 0 -1.271 1.258 1.21 1.21 0 0 0 1.258 1.271l17.983-.076c-5.313 6.958-12.549 13.412-19.991 17a1.459 1.459 0 0 0 -1 1.315 1.578 1.578 0 0 0 1.588 1.493c1.7.008 13.291-7.578 21.207-18.153l-.2 19.027a1.33 1.33 0 0 0 1.479 1.217 1.367 1.367 0 0 0 1.491-1.258l-.071-18.973c7.65 9.772 19.105 17.638 20.975 17.647a1.775 1.775 0 0 0 1.823-1.7 1.479 1.479 0 0 0 -.928-1.324 64.055 64.055 0 0 1 -20.328-16.258zm-29.728-4.767a1.63 1.63 0 0 0 1.493-1.642c.007-1.485-4.751-6.678-6.511-6.687a1.412 1.412 0 0 0 -1.491 1.148.889.889 0 0 0 .437.772 22.421 22.421 0 0 1 4.921 5.634 1.321 1.321 0 0 0 1.151.773zm85.672 3.118c.04-8.083-6.468-15.375-17.137-15.428-12.153-.06-21.387 10.124-21.433 19.472-.026 5.114 2.868 9.363 6.278 9.38a5.448 5.448 0 0 0 3.858-1.8c4.366-4.268 11.289-14.3 11.324-21.336 0-.935-.1-2.42-1.913-2.429a1.481 1.481 0 0 0 -1.493 1.7v.11.55c-.042 8.524-8.171 17.613-9.718 18.98a3.245 3.245 0 0 1 -1.984.925c-2.42-.012-3.447-3.537-3.434-6.286.043-8.634 9.483-15.957 15.7-16.531a21.21 21.21 0 0 1 2.586-.152c8.743.043 14.049 5.844 14.016 12.553-.033 6.6-5.186 14.437-17.624 16.3-1.21.214-1.764.871-1.767 1.586a1.658 1.658 0 0 0 1.807 1.6c4.066.024 20.865-5.283 20.934-19.196zm57.118-5.437-.017 3.355c-.082 16.663-.142 17.652-.146 18.367-.07 3.024-1.394 3.953-3.924 3.94a20.16 20.16 0 0 1 -3.353-.346h-.222a1.313 1.313 0 0 0 -1.326 1.368c-.006 1.265 1.037 1.655 4.611 1.672 5.719.029 7.164-2.989 7.181-6.343.009-1.925-.034-4.29-.021-6.93.041-8.3.093-18.752.028-27.936.02-4.069-3.444-4.2-7.4-4.216-.88 0-1.76-.009-2.64.042a3.82 3.82 0 0 0 -4.088 3.664c-.061 1.265-.067 2.529-.074 3.849-.009 1.76-.018 3.575.029 5.335.089 4.235 3.883 4.253 7.348 4.271 1.264.003 2.638.01 4.014-.094zm-29.392 27.35a1.318 1.318 0 0 0 1.424 1.272 1.4 1.4 0 0 0 1.546-1.367c.142-6.544.229-12.978.257-18.587.016-3.244-.024-6.214-.011-8.8 1.429.062 2.694.123 3.9.129 6.984.035 6.992-1.56 7.023-7.719.009-1.925-.036-3.905-.082-5.72-.092-3.685-3.281-3.7-6.526-3.717-4.069-.02-6.984.076-7 4.31-.113 11.6-.2 29.916-.529 40.143v.055zm24.23-6.423a1.123 1.123 0 0 0 1.16-1.149 1.138 1.138 0 0 0 -1.148-1.215l-6.985.02.084-5.829 5 .08a1.1 1.1 0 1 0 .011-2.2l-5 .031.023-4.51 6.1.085a1.082 1.082 0 0 0 1.16-1.094 1.1 1.1 0 0 0 -1.149-1.16l-14.9-.074a1.1 1.1 0 0 0 -1.161 1.149 1.084 1.084 0 0 0 1.15 1.106l6.1-.025.033 4.51-5.059-.08a1.1 1.1 0 1 0 -.011 2.2l5.06-.03.026 5.83-7.039-.09a1.183 1.183 0 1 0 -.012 2.365zm-34.124 5.716c2.88-4.165 7.332-14.812 7.339-16.3a1.418 1.418 0 0 0 -1.478-1.382 1.239 1.239 0 0 0 -1.269.874 58.276 58.276 0 0 1 -7.39 15.361 1.756 1.756 0 0 0 -.334.934 1.48 1.48 0 0 0 1.532 1.437 1.924 1.924 0 0 0 1.599-.926zm39.242-28.733c-1.375.049-2.97.1-4.345.089-4.454-.022-4.508-.3-4.482-5.467l8.853.044zm-8.817-7.467c0-1.045.065-2.035.069-2.915.122-2.419 1.827-2.41 4.357-2.4 4.344.022 4.4.3 4.373 5.356zm-8.864 2.046c-.026 5.224-.577 5.386-3.931 5.37-1.32-.007-2.915-.015-4.454-.077l.026-5.335zm-8.348-2.131.013-2.695c.121-2.309.728-2.636 4.192-2.619 4.18.021 4.177.626 4.153 5.355zm-8.8 11.945a1.7 1.7 0 0 0 1.493-1.753 1.641 1.641 0 0 0 -.763-1.378c-1.316-.832-6.418-3.222-7.683-3.228a1.6 1.6 0 0 0 -1.493 1.533.973.973 0 0 0 .711.938 28.108 28.108 0 0 1 6.856 3.553 1.466 1.466 0 0 0 .875.333zm1.874-12.035a1.74 1.74 0 0 0 1.548-1.752c.01-1.979-6.625-5.807-7.395-5.811a1.651 1.651 0 0 0 -1.547 1.478 1 1 0 0 0 .545.882 27.539 27.539 0 0 1 5.807 4.648 1.325 1.325 0 0 0 1.038.553zm90.807 21.127a1.907 1.907 0 0 0 1.825-2.081c.024-4.894-5.668-10.422-8.954-13.187a2.331 2.331 0 0 0 -1.372-.557 1.422 1.422 0 0 0 -1.491 1.367 1.231 1.231 0 0 0 .49.938c3.889 3.1 7.441 7.625 7.97 11.973a1.6 1.6 0 0 0 1.528 1.545zm-20.658 6.332c.452-2.362 1.289-4.833 1.741-7.25 0-.11.056-.165.056-.275a1.633 1.633 0 0 0 -1.642-1.548 1.41 1.41 0 0 0 -1.325 1.093c-.615 1.977-1.01 4.12-1.734 5.876a2.106 2.106 0 0 1 -1.933 1.585c-.879 0-7.033-1.244-9.385-14.784-.321-1.817-.53-4.018-.852-5.779a1.627 1.627 0 0 0 -1.587-1.493 1.548 1.548 0 0 0 -1.6 1.532c0 .44.964 5.174 1.071 5.835.858 4.349 2.689 12.277 7.674 16.151a8.947 8.947 0 0 0 5.378 2.171 3.9 3.9 0 0 0 4.138-3.114zm47.747-12.448a20.462 20.462 0 0 1 -5.65 7.064 1.168 1.168 0 0 0 -.509.861.889.889 0 0 0 .932.833c.72 0 1.3-.606 2.6-2.039a4.643 4.643 0 0 1 2.56-.959c1.476.007 2.478 1.236 2.935 3.4-6.494 3.063-7.266 6.335-7.273 7.7-.011 2.267 1.883 5.049 7.606 5.077 1.26.006 5.652-.044 5.66-1.664a1.094 1.094 0 0 0 -1.219-1.014 2.448 2.448 0 0 0 -.685.105 16.789 16.789 0 0 1 -4.43.626c-3.672-.018-5-1.645-4.988-3.265.013-2.483 2.829-4.3 5.572-5.731a6.933 6.933 0 0 1 .032.864 23.5 23.5 0 0 1 -.193 2.626v.252a.924.924 0 0 0 .858 1.085c1.188 0 1.268-1.542 1.277-3.414a22.322 22.322 0 0 0 -.133-2.268 47.426 47.426 0 0 1 5.121-1.919c1.622-.5 2.668-.778 4.038-1.2a.936.936 0 0 0 .688-.9.976.976 0 0 0 -1.075-.977c-.36 0-2.81.418-9.123 3.194-.743-2.667-2.356-4.007-4.336-4.017a6.406 6.406 0 0 0 -1.116.139 39.384 39.384 0 0 0 2.976-4.917c2.306-.565 4.505-1.166 4.51-2.245a.861.861 0 0 0 -.9-.869 1.01 1.01 0 0 0 -.541.142 11.825 11.825 0 0 1 -2.2.925 9.269 9.269 0 0 0 .661-2.625 1.015 1.015 0 0 0 -1.075-.977.923.923 0 0 0 -.94.823 13.7 13.7 0 0 1 -.845 3.38 15.925 15.925 0 0 1 -3.35.451 3.206 3.206 0 0 1 -1.761-.405 1.62 1.62 0 0 0 -.863-.328.884.884 0 0 0 -.9.86c0 .935 1.36 1.59 3.34 1.6a13.286 13.286 0 0 0 2.233-.2zm-515.294 64.448c1.584.008 1.726.3 1.714 2.852-.011 2.232-.014 2.88-1.706 2.872-.576 0-5.075-.134-5.651-.136h-.324c-2.484-.012-3.314.56-4.422 6.133a4.024 4.024 0 0 0 -.075.612c-.007 1.332 1 2.093 3.337 2.1 1.08.006 6.371 0 7.451 0a1.477 1.477 0 0 1 1.721 1.484 15.751 15.751 0 0 1 -1.868 6.506c-1.052 1.687-3.216 2.5-5.664 2.492a12.96 12.96 0 0 1 -3.812-.631 1.334 1.334 0 0 0 -.5-.074.955.955 0 0 0 -1.013.967 1.014 1.014 0 0 0 .751.975 15.873 15.873 0 0 0 4.5.707c7.811.038 9.026-5.427 9.629-10.9 0-.144.037-.287.038-.431.009-1.764-1.246-2.742-3.406-2.753l-7.271-.036c-.828 0-1.764-.045-1.759-.944 0-.108 0-.108.845-3.416.221-.9.977-1.111 1.913-1.106h.207c.36 0 5.075.061 5.759.064 2.34.012 3.209-1.064 3.288-2.575.039-.54.042-1.188.045-1.836.015-3.1-.013-4.643-3.325-4.66-1.3-.006-5.219-.061-7.631-.073l-1.44-.008a.879.879 0 0 0 -.94.9.861.861 0 0 0 .9.868zm12.682 26.952a.943.943 0 0 0 1.039.869.924.924 0 0 0 1.048-.859l.139-28.148a.929.929 0 0 0 -1.039-.9.947.947 0 0 0 -1.048.895zm29.586-13.316a41.828 41.828 0 0 1 1.346 4.578c0 .288-.182.4-.542.393a2.642 2.642 0 0 1 -.5-.038 49.281 49.281 0 0 0 -5.5-.5c-5.723-.028-7.429 2.843-7.437 4.463-.012 2.412 3.286 5.056 9.945 5.089 1.332.006 1.767-.568 1.77-1.143a.985.985 0 0 0 -1.115-.938h-.252a9.759 9.759 0 0 1 -1.549.1c-4.175-.02-6.866-1.69-6.859-3.237 0-.468.733-2.7 5.377-2.673a25.138 25.138 0 0 1 6.942 1.114 2.325 2.325 0 0 0 1.185.4 1.05 1.05 0 0 0 1.015-1.291 5.837 5.837 0 0 0 -.351-1.8c-.355-1.009-.89-2.056-1.315-3.426-.142-.469-.32-.937-.461-1.406 3.243-.812 3.245-1.244 3.248-1.82a.907.907 0 0 0 -.895-.976 1.4 1.4 0 0 0 -.5.105 24.012 24.012 0 0 1 -2.452.816 89.948 89.948 0 0 0 -5.05-12.479 1.219 1.219 0 0 0 -1.112-.69.945.945 0 0 0 -1.048.823.973.973 0 0 0 .177.577 59.589 59.589 0 0 1 5.375 12.157 13.691 13.691 0 0 1 -2.3.169c-1.872-.01-4.965-.529-4.959-1.681 0-1.008 2.565-2 2.6-2a1.482 1.482 0 0 0 1.3-1.217c.012-2.376-7.355-4.86-8.219-4.864a.943.943 0 0 0 -1.097.859.954.954 0 0 0 .9.869c1.222.258 5.894 1.757 5.889 2.837 0 .251 0 .251-2.06 1.609a2.655 2.655 0 0 0 -1.27 2.046c-.012 2.555 4.3 3.369 7 3.382a18.415 18.415 0 0 0 2.774-.207zm40.2 2.43c.031 1.08.095 2.592.088 4.032-.016 3.168-.1 4.787-2.976 4.881-1.872.063-4.428.086-7.091.073l.065-13.1c2.087.01 4.211-.016 6.3-.077 2.592-.1 4.255-1.419 4.34-4.118.041-1.008.082-2.016.087-2.988s-.027-1.943-.058-2.844a.954.954 0 0 0 -1.039-.941.907.907 0 0 0 -1.012.823v.036c.03 1.08.1 2.377.09 3.636-.014 2.808-.023 4.572-2.975 4.665-1.764.063-3.744.09-5.724.08l.094-11.734a.975.975 0 0 0 -1.039-.941.987.987 0 0 0 -1.085.93l-.022 11.735c-1.907-.01-3.815-.055-5.578-.136-2.627-.121-2.73-1.273-2.715-4.3.007-1.332.014-2.879.057-4.139v-.039a.912.912 0 0 0 -1-.869.923.923 0 0 0 -1.012.931c0 .972-.046 1.979-.051 3.023s.026 2.052.021 3.06c.023 2.628 1.42 3.931 3.975 4.051 1.98.082 4.1.129 6.3.139l-.065 13.1c-2.592-.013-5.075-.062-6.947-.143-2.735-.121-2.728-1.417-2.713-4.4.007-1.511.016-3.383.059-4.643v-.036a.935.935 0 0 0 -1-.869.973.973 0 0 0 -1.013.967c0 .972-.046 2.124-.052 3.312s.025 2.339.02 3.347c.022 2.664 1.384 4 3.939 4.123 2.123.083 5 .133 7.99.148 3.312.016 6.8 0 9.467-.061 2.52-.06 4.255-1.455 4.341-4.19.039-.756.044-1.62.048-2.52.007-1.4-.022-2.844-.052-3.96a1.03 1.03 0 0 0 -1.076-.941.88.88 0 0 0 -.976.859v.036zm33.4 8.732a1.389 1.389 0 0 0 1.014-1.255 1 1 0 0 0 -1.038-1.049 1.649 1.649 0 0 0 -.649.141 26.663 26.663 0 0 1 -9.3 1.934c-4.392-.022-4.451-2.542-4.436-5.6.013-2.736.244-5.722.438-8.457.154-2.015.236-4.031.245-5.866.016-3.348.022-4.5-1.274-4.506a.991.991 0 0 0 -1.013 1.039v.216a30.9 30.9 0 0 1 .161 3.816c-.009 1.728-.09 3.671-.172 5.579-.158 3.023-.353 6.009-.367 8.781-.018 3.707.685 6.986 6.661 7.016a30.974 30.974 0 0 0 9.731-1.787zm25.142-25.966a42.927 42.927 0 0 0 -.8 6.908c-7.7 4.571-10.181 10.415-10.193 12.959-.014 2.88 1.7 4.905 3.912 4.916 1.392.007 2.642-.371 8.429-5.671.761 1.348 1.239 1.735 1.815 1.737a1.4 1.4 0 0 0 1.256-1.482 2.049 2.049 0 0 0 -.474-1.25 9.7 9.7 0 0 1 -.62-.867c2.123-2.1 5.263-6.215 5.286-10.679a7.235 7.235 0 0 0 -.043-1.008c.576-.046 1.1-.091 1.632-.088 5.713.028 9.726 3.936 9.705 8.208-.025 5.041-5 10.585-12.5 12.948a1.284 1.284 0 1 0 .324 2.546c1.1 0 14.81-5.015 14.861-15.288.033-6.721-6.237-10.4-12.238-10.43a14.03 14.03 0 0 0 -2.449.18 1.43 1.43 0 0 0 -.958-.389 1.169 1.169 0 0 0 -1.253.858 26.716 26.716 0 0 0 -4.184 1.612 46.85 46.85 0 0 1 .944-6.476 81.31 81.31 0 0 0 7.744-3.082 1.568 1.568 0 0 0 1.063-1.435 1.149 1.149 0 0 0 -1.194-1.158 1.643 1.643 0 0 0 -.769.188 67.516 67.516 0 0 1 -6.254 2.753c.486-1.341 1.117-2.73 1.7-4.216a1.731 1.731 0 0 0 .1-.479 1.22 1.22 0 0 0 -1.242-1.158c-.864 0-1.3-.007-3.154 6.8-2.885.849-3.509.99-4.806.984a7 7 0 0 1 -2.35-.444 1.658 1.658 0 0 0 -.623-.147 1.21 1.21 0 0 0 -1.206 1.29c-.007 1.344 1.863 1.738 3.639 1.747a17.314 17.314 0 0 0 4.565-.794zm6.019 6.078a6.428 6.428 0 0 1 .043.96c-.019 3.937-2.384 6.517-3.736 8a22.7 22.7 0 0 1 -.925-7.014 21.1 21.1 0 0 1 4.624-1.946zm-5.575 10.918c-3.859 3.725-5.881 4.915-7.225 4.908-.864 0-1.629-.536-1.62-2.408.019-3.792 5.18-8.759 7.587-10.139a26.139 26.139 0 0 0 1.259 7.639zm49.673-17.805c-2.429 5.8-5.573 10.678-9.152 16.037a1.916 1.916 0 0 0 -.39 1.1 1.1 1.1 0 0 0 1.195 1.062 1.814 1.814 0 0 0 1.589-.952c3.389-5.7 7.261-12.206 9.691-18.29 2.454-1.092 4.235-2.043 4.241-3.2a1.075 1.075 0 0 0 -1.1-1.061 1.3 1.3 0 0 0 -.818.284 14.01 14.01 0 0 1 -1.685 1.1 17.023 17.023 0 0 0 .448-3.311 1.27 1.27 0 0 0 -1.337-1.446 1.2 1.2 0 0 0 -1.3 1.145 25.422 25.422 0 0 1 -.5 4.8c-4.715 2.041-6.061 2.467-7.5 2.46a3.338 3.338 0 0 1 -1.2-.2 1.614 1.614 0 0 0 -.671-.1 1.158 1.158 0 0 0 -1.206 1.194c0 .673.521 1.491 2.681 1.5 2.252.015 4.706-1.077 7.015-2.122zm10.872 24.537a18.611 18.611 0 0 1 5.359 3.53 1.5 1.5 0 0 0 1 .485 1.388 1.388 0 0 0 1.3-1.433c.01-2.064-5.883-4.494-7.56-5.078-.089-1.489-.321-3.074-.507-4.275a15.684 15.684 0 0 1 -.226-2.833c.018-3.649 1.66-5.561 5.366-7.655a7.362 7.362 0 0 1 3.366-.991h.288.288a1.232 1.232 0 0 0 1.446-1.145c0-1.152-2.432-3.325-7.329-3.349a23.793 23.793 0 0 0 -4.226.411 1.368 1.368 0 0 0 -1.3 1.242 1.064 1.064 0 0 0 1.051 1.061c.1 0 .192-.047.288-.046a23.577 23.577 0 0 1 4.227-.6c.192 0 2.112.106 2.109.586a2.427 2.427 0 0 1 -1.156.954c-5.056 3.1-6.7 5.536-6.721 9.712 0 .816.087 1.729.179 2.689.138 1.249.324 2.4.366 3.554a21.18 21.18 0 0 0 -4.606-.55c-4.128-.021-8.216 1.591-8.231 4.567-.012 2.5 3.239 5.057 7.032 5.076 3.936.019 7.5-2.6 8.14-5.529a1.073 1.073 0 0 0 .058-.383zm-2.444-.877c0 .144-.05.288-.05.432-.348 2.3-2.949 4.018-5.733 4-2.64-.013-4.6-1.607-4.6-2.711.007-1.392 2.413-2.532 5.341-2.518a20.072 20.072 0 0 1 5.043.797zm61.75-13.9a1.324 1.324 0 0 0 -.954-1.2 29.053 29.053 0 0 0 -9.925-2.257c-2.833-.014-3.317.848-3.32 1.52a1.079 1.079 0 0 0 1 1.157.608.608 0 0 0 .288-.047 7.664 7.664 0 0 1 1.874-.23c2.976.014 6.665 1.377 9.061 2.3a1.207 1.207 0 0 0 .576.1 1.351 1.351 0 0 0 1.401-1.347zm-4.594 16.635c-4.032-.164-8.495-.378-10.542-3.94a1.317 1.317 0 0 0 -1.148-.774 1.435 1.435 0 0 0 -1.4 1.433c-.008 1.488 4.1 6.021 12.355 6.062.72 0 2.256.011 2.263-1.381a1.43 1.43 0 0 0 -1.527-1.404zm-16.152-24.658c4.281-1.707 4.574-2.666 4.576-3.146a1.242 1.242 0 0 0 -1.29-1.206 1.435 1.435 0 0 0 -.914.331 12.5 12.5 0 0 1 -1.444.905 11.8 11.8 0 0 0 .447-3.022c0-.672-.088-1.728-1.384-1.735a1.324 1.324 0 0 0 -1.446 1.289 16.5 16.5 0 0 1 -.6 4.8 19.844 19.844 0 0 1 -6.681 1.551 3.484 3.484 0 0 1 -1.582-.344 2.352 2.352 0 0 0 -.863-.244 1.339 1.339 0 0 0 -1.3 1.385c-.008 1.536 2.728 1.6 3.4 1.6a26.063 26.063 0 0 0 6.1-1.17l-.049.192a159.377 159.377 0 0 1 -11.254 23.754 1.965 1.965 0 0 0 -.244.815 1.329 1.329 0 0 0 1.482 1.207 1.583 1.583 0 0 0 1.445-.857c3.2-6.705 6.833-13.023 11.359-25.482zm71.4-4.063a1.31 1.31 0 0 0 1.207-1.291 1.558 1.558 0 0 0 -.428-1.01c-.429-.434-4.5-3.382-5.791-3.389a1.219 1.219 0 0 0 -1.254 1.1.968.968 0 0 0 .716.868 21.6 21.6 0 0 1 4.88 3.384.839.839 0 0 0 .67.334zm-4.195 3.819a1.273 1.273 0 0 0 1.206-1.29c.008-1.632-5.306-4.491-6.122-4.5a1.18 1.18 0 0 0 -1.253 1.05 1.014 1.014 0 0 0 .715.868 20.284 20.284 0 0 1 4.735 3.528.931.931 0 0 0 .719.34zm1.83 8.506a1.325 1.325 0 0 0 -.954-1.2 29.061 29.061 0 0 0 -9.878-2.257c-3.216-.016-3.366 1.088-3.368 1.52a1.082 1.082 0 0 0 1 1.157.614.614 0 0 0 .289-.047 7.7 7.7 0 0 1 1.873-.231c2.976.015 6.666 1.377 9.062 2.3a1.215 1.215 0 0 0 .575.1 1.353 1.353 0 0 0 1.401-1.346zm-4.595 16.635c-3.695-.162-8.5-.33-10.541-3.941a1.32 1.32 0 0 0 -1.149-.773 1.427 1.427 0 0 0 -1.351 1.433c-.007 1.488 4.1 6.021 12.307 6.062.72 0 2.256.011 2.263-1.381a1.43 1.43 0 0 0 -1.529-1.404zm-16.152-24.657c4.281-1.707 4.574-2.666 4.576-3.146a1.242 1.242 0 0 0 -1.29-1.207 1.434 1.434 0 0 0 -.913.332 11.732 11.732 0 0 1 -1.4.9 12.855 12.855 0 0 0 .4-2.878c0-1.008-.135-1.873-1.383-1.879a1.323 1.323 0 0 0 -1.446 1.289 16.462 16.462 0 0 1 -.6 4.8 19.812 19.812 0 0 1 -6.68 1.551 3.475 3.475 0 0 1 -1.583-.343 2.376 2.376 0 0 0 -.863-.245 1.287 1.287 0 0 0 -1.254 1.338c-.008 1.632 3.064 1.648 3.352 1.649a26.8 26.8 0 0 0 6.15-1.17l-.1.192a159.447 159.447 0 0 1 -11.254 23.755 1.932 1.932 0 0 0 -.244.814 1.329 1.329 0 0 0 1.482 1.208 1.583 1.583 0 0 0 1.448-.86c3.2-6.7 6.833-13.024 11.359-25.482zm59.938 3.32q.058 2.666.115 5.905v.817c-.042 8.448-3.627 15.055-11.228 18.234a1.367 1.367 0 0 0 -1.014 1.243 1.386 1.386 0 0 0 1.434 1.255 1.826 1.826 0 0 0 .817-.188c8.372-3.895 12.581-10.547 12.627-19.763 0-.528 0-1.008-.04-1.537-.085-2.4-.17-4.561-.161-6.385 1.489-.233 3.075-.465 4.468-.65a1.46 1.46 0 0 0 1.447-1.385 1.17 1.17 0 0 0 -1.339-1.159c-.1 0-.1 0-4.564.746.012-2.4.117-4.176.124-5.568s-.084-2.449-1.572-2.456a1.309 1.309 0 0 0 -1.447 1.337v.24c.137 1.345.173 3.7.254 6.914-1.009.187-1.874.374-2.547.515a28.866 28.866 0 0 1 -7.3.732 1.35 1.35 0 0 0 -1.59 1.24 1.367 1.367 0 0 0 1.434 1.352c1.482.002 4.171-.225 10.082-1.444zm-18.344 20.7a1.367 1.367 0 0 0 1.351-1.434 1.93 1.93 0 0 0 -.141-.721 37.612 37.612 0 0 1 -2.047-13.115 66.4 66.4 0 0 1 .518-7.678c.7-5.565.75-6.045.751-6.285a1.316 1.316 0 0 0 -1.434-1.255 1.282 1.282 0 0 0 -1.35 1.241c-.154 2.016-.4 3.647-.607 6.286-.2 2.3-.362 5.231-.377 8.255-.023 4.7.336 9.746 1.853 13.5a1.657 1.657 0 0 0 1.483 1.197zm75.286-13.6c.035-7.057-5.646-13.422-14.959-13.468-10.609-.052-18.669 8.837-18.71 17-.022 4.465 2.5 8.174 5.48 8.188a4.754 4.754 0 0 0 3.368-1.567c3.811-3.726 9.855-12.481 9.886-18.625 0-.816-.086-2.113-1.67-2.121a1.3 1.3 0 0 0 -1.3 1.482v.1.48c-.037 7.441-7.133 15.374-8.483 16.568a2.829 2.829 0 0 1 -1.732.807c-2.112-.01-3.009-3.087-3-5.487.038-7.537 8.278-13.928 13.7-14.43a18.541 18.541 0 0 1 2.257-.133c7.633.038 12.264 5.1 12.235 10.958-.028 5.76-4.527 12.6-15.384 14.229a1.552 1.552 0 0 0 -1.543 1.385 1.447 1.447 0 0 0 1.577 1.4c3.554.004 18.218-4.628 18.278-16.772zm49.557-4.124a.981.981 0 0 0 1.013-1 .955.955 0 0 0 -1-1.013l-17.089-.037.018-3.648 12 .108a.942.942 0 0 0 .965-1 .918.918 0 0 0 -.956-1.026l-11.953-.011.017-3.408 14.689.121a.942.942 0 0 0 .965-1 .917.917 0 0 0 -.955-1.012l-14.689-.073.016-3.312a1.174 1.174 0 0 0 -1.29-1.159 1.159 1.159 0 0 0 -1.254 1.146l-.016 3.312-14.545-.072a.957.957 0 0 0 -1.014 1 .982.982 0 0 0 1 1.014l14.545.023-.017 3.409-11.761-.106a1 1 0 0 0 -1.061 1 1.025 1.025 0 0 0 1.051 1.014l11.761.01.03 3.648-16.849-.131a.959.959 0 0 0 -1.06.955 1.045 1.045 0 0 0 1.1 1.061zm-19.559 23.612a1.273 1.273 0 0 0 2.545.012l-.044-10.513c4.562-.457 8.933-.964 12.44-1.523a26.792 26.792 0 0 1 2.052 2.555 1.149 1.149 0 0 0 .909.532 1.415 1.415 0 0 0 1.351-1.385c.008-1.536-6.492-7.329-7.98-7.336a1.166 1.166 0 0 0 -1.205.954.928.928 0 0 0 .476.77 19.4 19.4 0 0 1 2.821 2.27c-4.275.507-9.174 1.011-14.12 1.371 1.2-.81 10.117-7.295 10.125-8.927a1.4 1.4 0 0 0 -1.386-1.255 1.164 1.164 0 0 0 -.866.428 46.828 46.828 0 0 1 -7.524 7.163 38.369 38.369 0 0 0 -3.445-2.369c2.268-2.245 4.248-4.587 4.251-5.259a1.279 1.279 0 0 0 -1.339-1.063 1.013 1.013 0 0 0 -.963.523 26.233 26.233 0 0 1 -3.768 4.734c-2.776-1.646-3.974-2.036-4.454-2.038a1.337 1.337 0 0 0 -1.254 1.194.7.7 0 0 0 .525.722 30.071 30.071 0 0 1 8.52 4.987c-.771.524-1.541 1-2.264 1.429-3.265.176-6.53.3-9.6.288l-1.344-.006a1.108 1.108 0 0 0 -1.11 1.194 1.068 1.068 0 0 0 1.1 1.158c5.857.029 15.03-.838 15.654-.883zm-4.919-5.065a1.115 1.115 0 0 0 .533-.958 1.319 1.319 0 0 0 -1.194-1.35 1.369 1.369 0 0 0 -.577.19 34.993 34.993 0 0 1 -9.91 4.271 1.066 1.066 0 0 0 -.869 1.1 1.339 1.339 0 0 0 1.337 1.351c1.152.005 7.646-2.555 10.68-4.604zm22.2 4.286a1.514 1.514 0 0 0 1.4-1.481c.011-2.256-9.671-5.328-10.487-5.332a1.325 1.325 0 0 0 -1.35 1.241.938.938 0 0 0 .763.868 26.012 26.012 0 0 1 8.812 4.364 1.314 1.314 0 0 0 .867.34zm54.71-26.9a1.058 1.058 0 0 0 1.11-1.1 1.1 1.1 0 0 0 -1.147-1.109l-12.721-.063a53.511 53.511 0 0 0 2.346-8.486 1.334 1.334 0 0 0 -1.386-1.255 1.229 1.229 0 0 0 -1.253 1.05c-1.089 6.62-2.894 12.419-6.184 17.684a1.417 1.417 0 0 0 -.243.67.951.951 0 0 0 1.051.918c.72 0 1.394-.377 3.481-5.024a37.727 37.727 0 0 0 4.392 14.712 23.455 23.455 0 0 1 -9.689 8.208 1.2 1.2 0 0 0 -.774 1.053 1.373 1.373 0 0 0 1.338 1.35c.624 0 6.109-2.514 10.411-8.493 3.668 5.635 7.976 8.2 8.936 8.2a1.393 1.393 0 0 0 1.4-1.385 1.223 1.223 0 0 0 -.715-1.06 22.664 22.664 0 0 1 -8.266-7.817c3.05-5.122 4.472-11.307 4.7-18.075zm-38.011 27.319c-.082-2.689-.065-6.145-.048-9.6.023-4.753.094-9.457.156-12.241.056-1.632.78-2.4 2.316-2.437 1.3-.041 3.841-.029 6.337-.016 1.824.009 3.6.017 4.848.072a2.268 2.268 0 0 1 2.436 2.46c.039 1.968.071 5.185.056 8.257-.021 4.08-.088 7.92-.088 8.064-.012 2.305-.831 3.021-2.655 3.012a17.619 17.619 0 0 1 -3.119-.4h-.192a1.11 1.11 0 0 0 -1.11 1.195c0 1.008 1.1 1.493 4.217 1.509 4.368.021 5.244-2.375 5.257-4.823v-.192c.009-1.68-.073-4.609-.069-5.377.037-7.536.049-9.888-.037-11.857-.084-2.4-1.422-3.655-4.158-3.765-.624 0-1.344-.055-2.064-.058 1.7-3.688 1.749-4.264 1.75-4.456a1.307 1.307 0 0 0 -1.434-1.159.942.942 0 0 0 -1.012.763 22.984 22.984 0 0 1 -1.608 4.84l-3.5-.017c.007-1.248-1.945-4.522-2.471-5.053a1.268 1.268 0 0 0 -.91-.34 1.155 1.155 0 0 0 -1.253.858.456.456 0 0 0 .1.336 24.414 24.414 0 0 1 2.187 4.188c-.768 0-1.44.04-2.064.037-2.977.082-4.039 1.325-4.1 3.676-.063 3.168-.088 8.209-.112 13.057-.018 3.552-.035 6.961 0 9.457a1.119 1.119 0 0 0 1.195 1.014 1.042 1.042 0 0 0 1.157-.954v-.048zm13.961-17.6a.961.961 0 0 0 .009-1.92l-4.9.024.062-2.832a1.084 1.084 0 0 0 -1.1-1.11 1.1 1.1 0 0 0 -1.158 1.1l-.014 2.832-4.9-.072a.965.965 0 0 0 -.009 1.92l4.9-.024.032 3.264-.816.044c-2.113.038-2.886 1.186-2.94 2.434 0 .672-.056 1.488-.06 2.352 0 .816.04 1.632.036 2.4.084 2.4 2.435 2.605 4.644 2.616 4.848.024 5.093-.983 5.108-3.96 0-1.152.011-2.352-.031-3.408-.042-1.248-.949-2.309-2.869-2.414-.288 0-.624-.051-.912-.053l.016-3.264zm18.386-9.8c-.173 5.9-1.208 11.323-3.583 15.872a34.222 34.222 0 0 1 -3.811-15.717v-.192zm-13.991-5.446a1.056 1.056 0 1 0 .011-2.112h-9.073l.02-4.08a1.121 1.121 0 0 0 -1.243-1.11 1.137 1.137 0 0 0 -1.3 1.1l.028 4.081-8.5-.09a1.056 1.056 0 1 0 -.01 2.112zm-10.355 26.4c-3.024-.015-3.024-.015-3.009-3.183.015-3.073.208-3.072 2.992-3.058s2.928.062 2.913 3.039c-.009 2.885-.059 3.221-2.891 3.207zm-355.7 13.313.012-2.4 290.877 1.438-.012 2.4zm290.877 1.438.012-2.4 100.8.5-.012 2.4zm-394.291 39.247a20.462 20.462 0 0 1 -5.651 7.064 1.17 1.17 0 0 0 -.508.861.889.889 0 0 0 .932.833c.72 0 1.3-.606 2.6-2.039a4.65 4.65 0 0 1 2.56-.96c1.476.008 2.478 1.236 2.935 3.4-6.494 3.063-7.266 6.335-7.273 7.7-.011 2.267 1.883 5.048 7.606 5.077 1.26.006 5.651-.044 5.659-1.664a1.093 1.093 0 0 0 -1.217-1.016 2.448 2.448 0 0 0 -.685.105 16.789 16.789 0 0 1 -4.43.626c-3.672-.019-5-1.645-4.988-3.265.013-2.483 2.829-4.305 5.572-5.731a6.933 6.933 0 0 1 .032.864 23.761 23.761 0 0 1 -.193 2.626v.252a.923.923 0 0 0 .858 1.084c1.188.006 1.268-1.541 1.277-3.413a22.614 22.614 0 0 0 -.133-2.268 47.216 47.216 0 0 1 5.121-1.919c1.622-.5 2.667-.778 4.037-1.2a.936.936 0 0 0 .689-.9.976.976 0 0 0 -1.075-.977c-.36 0-2.81.418-9.123 3.194-.743-2.667-2.356-4.007-4.336-4.017a6.3 6.3 0 0 0 -1.116.139 39.384 39.384 0 0 0 2.976-4.917c2.306-.565 4.5-1.166 4.51-2.245a.861.861 0 0 0 -.895-.869 1.018 1.018 0 0 0 -.541.141 11.691 11.691 0 0 1 -2.2.925 9.285 9.285 0 0 0 .661-2.624 1.015 1.015 0 0 0 -1.075-.977.922.922 0 0 0 -.94.823 13.7 13.7 0 0 1 -.845 3.38 15.925 15.925 0 0 1 -3.35.451 3.212 3.212 0 0 1 -1.762-.4 1.615 1.615 0 0 0 -.862-.328.883.883 0 0 0 -.9.859c0 .936 1.36 1.591 3.34 1.6a13.266 13.266 0 0 0 2.232-.205zm42.958 12.6c-.046 1.944-.061 5-.066 6.047.054 3.672 3.292 3.9 6.064 3.918 3.167.016 7.595 0 7.625-6.154a1.077 1.077 0 0 0 -1.111-1.013.915.915 0 0 0 -.94.967c-.02 3.924-2 4.49-5.422 4.473-4.247-.021-4.314-1.173-4.3-3.225.006-1.332.053-3.455.1-5.039.756 0 1.476-.029 2.2-.061a3.537 3.537 0 0 0 3.688-3.474c.081-1.691.092-3.995.1-6.334.011-2.3.023-4.644-.041-6.336a3.308 3.308 0 0 0 -3.44-3.148c-2.052-.047-4.355-.094-6.587-.1-1.836-.009-3.6.018-5.111.047a3.5 3.5 0 0 0 -3.689 3.4c-.043 1.4-.09 3.707-.1 6.083-.012 2.34.013 4.715.041 6.335.062 1.944 1.315 3.355 3.942 3.476 1.691.08 3.671.126 5.687.136zm6.042-6.2c-.017 3.276-.022 4.427-2.507 4.523-1.584.064-3.24.092-4.859.084-1.872-.009-3.708-.054-5.4-.135-2.483-.12-2.479-1.056-2.461-4.547zm.043-1.512-15.262-.075c.007-1.368-.022-2.844-.015-4.212l15.3.076zm-15.234-5.8c0-.828.008-1.548.047-2.124a2.2 2.2 0 0 1 2.422-2.184c1.4-.029 3.312-.055 5.184-.046 1.908.009 3.779.055 5.075.1 2.519.085 2.513 1.344 2.5 4.332zm5.178 15.755a.772.772 0 0 0 .074-.395 1.056 1.056 0 0 0 -1-1.013.881.881 0 0 0 -.831.644c-1.711 3.843-5.324 6.489-10.4 7.148a.893.893 0 0 0 -.868.859.945.945 0 0 0 .967.977c.139-.003 8.782-.863 12.058-8.224zm51.407.111c3.215-2.468 4.487-4.946 4.5-7.249.017-3.456-2.916-7.25-8.207-7.276a17.068 17.068 0 0 0 -5.26.91c-4.254 1.347-8.982 3.843-12.733 5.3a1.215 1.215 0 0 0 -.869 1.112 1.139 1.139 0 0 0 1.182 1.122 1.637 1.637 0 0 0 .757-.177c3.824-1.745 8.372-4.278 12.194-5.591a13.984 13.984 0 0 1 4.5-.841c3.779.018 6.178 2.658 6.165 5.358-.027 5.291-8.361 9.173-15.781 10.216a1.091 1.091 0 0 0 -1.085 1.039 1.187 1.187 0 0 0 1.254 1.158c.939.001 9.191-1.83 13.383-5.085zm36.958-11.66q.043 2 .086 4.428v.612c-.031 6.335-2.72 11.289-8.419 13.672a1.026 1.026 0 0 0 -.76.933 1.039 1.039 0 0 0 1.075.941 1.372 1.372 0 0 0 .613-.141c6.277-2.921 9.434-7.909 9.468-14.82 0-.4 0-.756-.03-1.152-.064-1.8-.127-3.42-.121-4.788 1.117-.174 2.306-.348 3.35-.487a1.1 1.1 0 0 0 1.085-1.039.876.876 0 0 0 -1-.869c-.072 0-.072 0-3.423.56.009-1.8.088-3.132.093-4.176s-.063-1.836-1.179-1.841a.982.982 0 0 0 -1.085 1v.18c.1 1.009.13 2.773.19 5.185-.757.14-1.4.281-1.91.386a21.625 21.625 0 0 1 -5.474.549 1.012 1.012 0 0 0 -1.192.93 1.023 1.023 0 0 0 1.074 1.013 39.111 39.111 0 0 0 7.559-1.08zm-13.755 15.518a1.024 1.024 0 0 0 1.013-1.075 1.44 1.44 0 0 0 -.105-.54 28.17 28.17 0 0 1 -1.536-9.835 49.836 49.836 0 0 1 .389-5.757c.524-4.173.562-4.533.563-4.713a.987.987 0 0 0 -1.075-.941.963.963 0 0 0 -1.013.931c-.115 1.511-.3 2.734-.455 4.713-.152 1.727-.271 3.922-.282 6.19-.018 3.527.251 7.308 1.389 10.122a1.241 1.241 0 0 0 1.112.901zm49.679.066a11.043 11.043 0 0 1 3.767 2.822 1.11 1.11 0 0 0 .862.472 1.064 1.064 0 0 0 .978-1.147c.006-1.4-3.224-3.255-5.38-4.022 0-.216 0-.4 0-.612.007-1.332-.095-2.7-.2-3.745-.138-1.3-.274-2.809-.338-4.429.4-.142 4.723-1.56 4.731-3.144a.93.93 0 0 0 -.932-.94 1.19 1.19 0 0 0 -.866.391 8.436 8.436 0 0 1 -2.96 1.785c-.031-.936-.027-1.908-.022-2.843.016-3.24.176-6.407.367-8.674v-.108a1.107 1.107 0 0 0 -1.11-1.049c-1.044 0-1.083.571-1.112 6.4-.011 2.2.014 4.571.11 6.876a12.62 12.62 0 0 1 -3.206.56c-.972 0-1.727-.3-1.724-.8 0-.864 2.86-3.261 3.545-3.582a1.475 1.475 0 0 0 .907-1.291c.011-2.412-7.07-4.463-8.977-4.472a.977.977 0 0 0 -1.157.894.93.93 0 0 0 1.04.869c3.2.088 6.687 1.725 6.682 2.661a1.7 1.7 0 0 1 -.653 1.041c-.543.537-1.59 1.324-2.133 1.9a3.545 3.545 0 0 0 -1.236 2.333c-.01 2.016 2.942 2.139 3.553 2.142a14.583 14.583 0 0 0 3.458-.451c.065 1.476.166 2.952.267 4.285.068.9.136 1.692.132 2.484a8.142 8.142 0 0 1 -.041.936 14.838 14.838 0 0 0 -3.561-.45c-6.047-.03-6.1 3.1-6.1 3.462-.01 2.159 2.717 3.9 5.38 3.914a6.046 6.046 0 0 0 5.853-4.255.524.524 0 0 0 .076-.217zm-1.978-.406a4.142 4.142 0 0 1 -4.119 3.075c-2.051-.01-3.45-1.133-3.445-2.177.009-1.655 3.357-1.783 4.077-1.779a12.077 12.077 0 0 1 3.561.557zm51.884-16.338a1.134 1.134 0 0 0 1.265-1.073 1.1 1.1 0 0 0 -1.291-1.015c-3.2-.015-6.479.076-9.72.312a27.869 27.869 0 0 1 .455-4.749c0-.072 0-.108 0-.18a1.115 1.115 0 0 0 -1.147-1.049c-1.187-.006-1.228.965-1.247 4.745q0 .648-.007 1.4a87.1 87.1 0 0 0 -14.7 2.519 1.258 1.258 0 0 0 -1.085 1.11 1.044 1.044 0 0 0 1.038 1.046 1.755 1.755 0 0 0 .432-.07 58.8 58.8 0 0 1 14.376-2.808 42.92 42.92 0 0 0 .372 4.9 5.464 5.464 0 0 0 -2.122-.442 3.66 3.66 0 0 0 -3.869 3.688c-.011 2.16 1.522 5.083 4.69 5.1a3.559 3.559 0 0 0 1.621-.352 15.232 15.232 0 0 1 -10 6.322 1.177 1.177 0 0 0 -1.121 1.038 1.117 1.117 0 0 0 1.219 1.014 16.972 16.972 0 0 0 11.7-7.861 7.388 7.388 0 0 0 1.17-3.7 5 5 0 0 0 -1.315-3.426c-.316-1.55-.315-1.874-.436-6.41 1.908-.134 3.816-.161 5.724-.151 1.332.006 2.663.049 3.959.091h.036zm-10.55 7.939a3.943 3.943 0 0 1 .211 1.009v.108c0 .108-.037.216-.037.324-.188 1.655-1.092 2.3-2.063 2.293a3.108 3.108 0 0 1 -2.936-3.182 2.04 2.04 0 0 1 2.17-2.149 3.288 3.288 0 0 1 2.655 1.593zm55.3-12.253a29.488 29.488 0 0 0 1.353-4.277.993.993 0 0 0 -1.111-.9.926.926 0 0 0 -1.012.679c-.148.827-.7 2.984-1.174 4.493-1.152 0-2.2.026-2.916.058-3.1.093-4.58 1.705-4.627 4.045-.05 2.7-.1 6.262-.12 9.682-.014 2.808.009 5.471.035 7.487.058 2.808 1.671 4.076 4.947 4.2 1.691.081 4.066.128 6.406.14 1.692.008 3.348-.019 4.716-.049 3.2-.092 4.867-1.487 4.952-4.259.082-2.015.134-5.218.15-8.494.017-3.312 0-6.623-.1-8.82-.062-1.98-1.421-3.75-4.336-3.873-1.659-.089-4.538-.103-7.166-.116zm-7.742 7.845c.006-1.26.048-2.376.088-3.275.081-1.692.878-2.8 3.326-2.9 1.116-.066 3.06-.056 5.148-.046 2.051.01 4.211.021 5.651.1 3.238.16 3.231 1.636 3.209 6.207zm17.384 7.717-17.422-.086c.01-1.944-.016-4.032-.006-5.976l17.457.087zm-.044 1.656c-.007 1.4-.014 2.663-.054 3.635-.088 3.131-2.1 3.121-8.367 3.09-6.983-.034-8.818-.043-8.911-3.14-.031-.936-.061-2.232-.054-3.671zm26.51-9.7a27.074 27.074 0 0 1 -1.778 2.871 20.809 20.809 0 0 0 -4.6-2.039.927.927 0 0 0 -.94.931.714.714 0 0 0 .536.687 25.554 25.554 0 0 1 3.951 1.783 17.868 17.868 0 0 1 -6.9 5.294 1 1 0 0 0 -.689.86.962.962 0 0 0 .968.941c.612 0 9.339-3.338 13.362-16.132a3.752 3.752 0 0 0 .185-1.043c.006-1.3-.925-2.2-2.8-2.21h-.252l-3.78.053c1.093-2.514 1.129-2.622 1.13-2.8a1.023 1.023 0 0 0 -1-.977.956.956 0 0 0 -.9.752 29.6 29.6 0 0 1 -7 11.376.9.9 0 0 0 -.291.682.884.884 0 0 0 .9.869 1.18 1.18 0 0 0 .9-.428 34.537 34.537 0 0 0 5.511-7.928c1.476-.029 3.2-.056 4.14-.051 1.008 0 1.438.295 1.435.943a17.961 17.961 0 0 1 -1.352 4.06 17.156 17.156 0 0 0 -4.274-1.892.89.89 0 0 0 -.9.895.758.758 0 0 0 .573.759 19.655 19.655 0 0 1 3.862 1.744zm17.934-1.747a.764.764 0 0 0 .8-.824.754.754 0 0 0 -.788-.8l-7.271-.036a34.248 34.248 0 0 0 .2-3.923c0-1.044-.026-2.2-.019-3.455a.939.939 0 0 0 -1-.905.914.914 0 0 0 -.94.967c.028 1.584.092 3.132.084 4.68a21.183 21.183 0 0 1 -.121 2.627l-4.355-.022a.822.822 0 0 0 -.832.86.717.717 0 0 0 .752.76h.036l4.14-.015c-.887 4.531-3.428 8.946-8.98 10.682a.888.888 0 0 0 -.688.824.991.991 0 0 0 .967.977c.036 0 7.5-1.583 10.059-10.569 1.879 5.769 7.653 10.189 9.057 10.2a1 1 0 0 0 1.012-1 .882.882 0 0 0 -.535-.867 17.019 17.019 0 0 1 -8.553-10.265zm1.237 19.3c.007-1.476-4.4-5.674-5.624-5.68a.952.952 0 0 0 -.976.823.5.5 0 0 0 .214.4 17.394 17.394 0 0 1 4.4 4.989.948.948 0 0 0 .861.544 1.114 1.114 0 0 0 1.122-1.076zm-28.049 1.517c1.512.007 4.918-4.476 4.927-6.347a.928.928 0 0 0 -.967-.9.878.878 0 0 0 -.9.716 9.31 9.31 0 0 1 -3.659 4.877.886.886 0 0 0 -.472.717 1.04 1.04 0 0 0 1.068.937zm19.264-1.237c0-.792-2.022-6.057-3.569-6.065a.837.837 0 0 0 -.868.716.7.7 0 0 0 .106.36 14.871 14.871 0 0 1 2.35 5.267.877.877 0 0 0 .9.761 1.052 1.052 0 0 0 1.078-1.039zm-7.847.069c0-.18-.33-6.049-2.166-6.058a.744.744 0 0 0 -.831.644.444.444 0 0 0 .035.216 15.133 15.133 0 0 1 .981 5.368.84.84 0 0 0 .9.869 1.03 1.03 0 0 0 1.078-1.039zm13.9-23.184a1.025 1.025 0 0 0 .977-1c.006-1.188-3.151-3.472-3.907-3.475a.97.97 0 0 0 -.94.859.415.415 0 0 0 .214.4 8.46 8.46 0 0 1 3.081 2.895.692.692 0 0 0 .573.321zm26.563 1.283c-2.483-.012-4.931-.025-7.127.037-2.628.059-4.291 1.6-4.374 3.83-.048 2.339-.1 4.822-.108 7.234s.013 4.716.038 6.8c.059 2.628 1.6 4.039 4.767 4.2 2.663.121 5.83.208 9.034.224 2.411.012 4.859-.012 7.056-.109 2.628-.095 4.4-1.67 4.484-4.3.082-2.015.094-4.463.106-6.911s.025-4.9-.037-6.947a4.015 4.015 0 0 0 -4.156-3.944c-2.484-.085-5.111-.1-7.7-.11l.033-6.587a1.011 1.011 0 0 0 -2.016-.01zm1.895 9.872.075-8.211c2.448.013 4.859.06 6.911.107 2.159.046 3.018 1.094 3.081 2.859.064 1.584.055 3.419.046 5.291zm10.107 1.67c-.01 2.088-.021 4.175-.1 5.939-.082 1.871-.987 2.983-3.219 3.043-2.16.062-4.536.086-6.84.075l.045-9.107zm-12.05-1.679-9.791-.049c.009-1.8.054-3.563.134-5.183.081-1.907.95-2.875 3.218-2.935 1.836-.063 4.1-.088 6.479-.076zm-.051 10.726c-2.232-.011-4.32-.057-6.155-.138-2.447-.12-3.487-.918-3.513-2.969-.027-1.836-.088-3.96-.078-6.048l9.791.048zm54.737-10.96a.782.782 0 0 0 .8-.824.764.764 0 0 0 -.788-.832l-9.107-.045c1.738-2.043 3.952-5.7 3.954-6.244a1.1 1.1 0 0 0 -1.111-.977.792.792 0 0 0 -.794.536 28.974 28.974 0 0 1 -3.957 6.676l-2.231-.011c.007-1.4.025-5.04.077-8.387l10.835.054a.782.782 0 0 0 .8-.824.793.793 0 0 0 -.788-.868l-10.835-.054.061-4.967a.875.875 0 0 0 -.968-.833.824.824 0 0 0 -.9.788l-.024 5-10.871-.054a.822.822 0 0 0 -.832.86.773.773 0 0 0 .824.832l10.87.054v8.387l-12.958-.064a.812.812 0 0 0 -.832.824.793.793 0 0 0 .824.832l11.77-.05a38.6 38.6 0 0 1 -13.085 11.13.954.954 0 0 0 -.652.861 1.032 1.032 0 0 0 1.039.977c1.116 0 8.7-4.961 13.881-11.882l-.134 12.454a.871.871 0 0 0 .968.8.893.893 0 0 0 .976-.823l-.046-12.419c5.007 6.4 12.5 11.545 13.729 11.551a1.162 1.162 0 0 0 1.193-1.11.967.967 0 0 0 -.607-.867 41.909 41.909 0 0 1 -13.318-10.649zm-19.459-3.12a1.067 1.067 0 0 0 .977-1.075c0-.972-3.11-4.371-4.261-4.377a.925.925 0 0 0 -.976.752.581.581 0 0 0 .285.5 14.7 14.7 0 0 1 3.222 3.687.864.864 0 0 0 .749.513zm58.385-6.119a.869.869 0 0 0 -.028-1.727l-9.97-.05c-.063-1.8-.055-3.564-.083-5.148a.934.934 0 0 0 -1-.9.9.9 0 0 0 -1.012.786c0 .5.058 2.772.19 5.257l-10.115-.05c-2.447-.012-3.642 1.422-3.651 3.293v.072c.027 1.764.09 3.6.081 5.436-.024 5-.554 10.148-3.49 14.237a1.049 1.049 0 0 0 -.219.575.971.971 0 0 0 1.04.869 1.272 1.272 0 0 0 1.083-.606c3.046-4.593 3.469-10.026 3.531-15.281l5.255.026c1.8.081 1.83 1.269 1.824 2.492-.015 2.916-.1 5.687-3.34 5.671a6.515 6.515 0 0 1 -1.762-.26.446.446 0 0 0 -.216-.037.858.858 0 0 0 -.8.932c0 .863.751 1.155 2.694 1.165 4.608.023 5.236-3.358 5.256-7.353.01-2.052-.159-4.213-3.362-4.3-.756-.039-1.692-.044-2.664-.049s-1.979-.01-2.88.022l.015-2.88a2.035 2.035 0 0 1 2.351-2.292l9.466.047a53.789 53.789 0 0 0 2.772 14.556 19.724 19.724 0 0 1 -9.932 6.682.871.871 0 0 0 -.688.9.967.967 0 0 0 .931 1.012 20.662 20.662 0 0 0 10.472-6.679c2.528 5.484 4.757 6.179 5.944 6.185 3.348.016 4.452-4.838 4.453-5.09a1.094 1.094 0 0 0 -1.075-1.013.9.9 0 0 0 -.867.679c-.7 2.265-1.493 3.485-2.465 3.48-1.584-.008-3.691-3.33-4.759-5.783a32.788 32.788 0 0 0 5.016-9.8 1.076 1.076 0 0 0 -1.111-1.013.826.826 0 0 0 -.795.572 31.767 31.767 0 0 1 -3.892 8.187 49.517 49.517 0 0 1 -2.1-12.86zm-3.261-3.075a.992.992 0 0 0 .977-.967 1.113 1.113 0 0 0 -.428-.83c-.573-.471-3.48-2.285-4.416-2.29a.893.893 0 0 0 -.94.859.708.708 0 0 0 .5.687 12.719 12.719 0 0 1 3.589 2.213 1.161 1.161 0 0 0 .716.328zm29.113 9.971c1.764.008 3.419.052 4.751.059 1.944.01 2.117 1.342 2.111 2.53-.041 8.315-1.388 11.368-5.311 11.349a12.466 12.466 0 0 1 -3.058-.483.99.99 0 0 0 -.323-.038.955.955 0 0 0 -.941 1.039.887.887 0 0 0 .643.9 14.4 14.4 0 0 0 3.525.522c6.731.033 7.409-6.083 7.449-14.038.011-2.232-1.387-3.39-3.619-3.437-1.511-.044-3.239-.052-4.967-.061-2.376-.012-4.823-.024-6.911 0a.86.86 0 0 0 -.9.859.8.8 0 0 0 .859.832c1.368.007 3.024-.021 4.716-.012-.679 6.224-3.443 12.041-11.23 14.379a1 1 0 0 0 -.76.9 1.046 1.046 0 0 0 1.075 1.013c.136.002 11.232-1.995 12.887-16.313zm1.352-11.332h.18a2.641 2.641 0 0 1 2.692 1.6c2.884 6.278 8.974 12.211 10.594 12.22a1.16 1.16 0 0 0 1.157-1.147 1.111 1.111 0 0 0 -.607-.975 26.015 26.015 0 0 1 -9.7-11.386 3.859 3.859 0 0 0 -3.841-2.107h-.18l-5.58.117a.936.936 0 0 0 -.01 1.871h.036zm-15.189 14.323c1.4.007 6.717-4.574 9.408-9.961a1.24 1.24 0 0 0 .11-.467 1.069 1.069 0 0 0 -1.039-1.049 1 1 0 0 0 -.939.643 21.11 21.11 0 0 1 -8.071 8.959 1.019 1.019 0 0 0 -.544.862 1.047 1.047 0 0 0 1.071 1.013zm-361.633 53.689a.929.929 0 0 0 -1-.941h-.18a34.4 34.4 0 0 1 -4.465.3 19.484 19.484 0 0 1 -4.066-.417.731.731 0 0 0 -.252-.037.989.989 0 0 0 -.976.967.973.973 0 0 0 .823.94 22.044 22.044 0 0 0 4.929.565c5.142.027 5.184-.765 5.187-1.377zm3.053 15.854a.971.971 0 0 0 -1.039-1.013c-.072 0-.144.035-.252.034a23.78 23.78 0 0 1 -3.1.237c-3.455-.017-6.4-1-8.3-3.245a1.231 1.231 0 0 0 -.9-.472.994.994 0 0 0 -1.013.931c-.006 1.224 4.115 4.916 10.63 4.948 3.607.021 3.97-.628 3.976-1.42zm-22.513 3.2a1.011 1.011 0 0 0 .978-1.183v-.144c0-.18-.034-.324-.033-.468.011-2.376 1.972-5.75 3.133-7.724a.806.806 0 0 0 .11-.395.9.9 0 0 0 -.9-.832.842.842 0 0 0 -.723.464c-.363.61-1.561 2.764-2.034 3.769a.644.644 0 0 1 -.362.467c-.324 0-.349-2.378-.348-2.486.022-4.427 1.673-10.826 2.375-14.387 0-.072.037-.143.037-.215a1.034 1.034 0 0 0 -1.075-.942.921.921 0 0 0 -.941.932c-.267 3.166-2.169 9.2-2.2 15.4a22.772 22.772 0 0 0 .9 6.772 1.211 1.211 0 0 0 1.083.972zm55.142-20.1a1.157 1.157 0 0 0 -1.183-1.086 22.249 22.249 0 0 1 -9.061-1.988 1.761 1.761 0 0 0 -.647-.184.937.937 0 0 0 -.94.968 1.111 1.111 0 0 0 .643.975 24.487 24.487 0 0 0 9.779 2.352 1.171 1.171 0 0 0 1.409-1.038zm1.488 19.337a1.489 1.489 0 0 0 1.267-1.361 1.086 1.086 0 0 0 -1.183-1.05 1.676 1.676 0 0 0 -.576.069 24.939 24.939 0 0 1 -6.232.833c-2.987-.015-6.043-.75-7.9-3.135a1.3 1.3 0 0 0 -1-.545 1.015 1.015 0 0 0 -1.013 1.039c0 .828 2.424 4.8 10.882 4.842a23.407 23.407 0 0 0 5.755-.688zm47.02-22.7a.981.981 0 0 0 .9-.967 1.169 1.169 0 0 0 -.321-.758c-.322-.325-3.371-2.536-4.343-2.541a.913.913 0 0 0 -.939.823.724.724 0 0 0 .536.651 16.192 16.192 0 0 1 3.659 2.538.631.631 0 0 0 .508.258zm-3.146 2.864a.955.955 0 0 0 .9-.967c.006-1.224-3.979-3.367-4.591-3.37a.885.885 0 0 0 -.94.787.761.761 0 0 0 .537.65 15.251 15.251 0 0 1 3.551 2.646.7.7 0 0 0 .543.256zm1.372 6.378a.991.991 0 0 0 -.715-.9 21.776 21.776 0 0 0 -7.407-1.692c-2.411-.012-2.524.815-2.525 1.139a.813.813 0 0 0 .752.868.47.47 0 0 0 .216-.035 5.718 5.718 0 0 1 1.4-.173 21.451 21.451 0 0 1 6.8 1.725.915.915 0 0 0 .432.074 1.014 1.014 0 0 0 1.047-1.004zm-3.445 12.474c-2.771-.122-6.37-.248-7.9-2.955a.989.989 0 0 0 -.861-.58 1.072 1.072 0 0 0 -1.014 1.075c0 1.116 3.074 4.515 9.229 4.545.54 0 1.692.008 1.7-1.036a1.072 1.072 0 0 0 -1.154-1.047zm-12.111-18.49c3.21-1.28 3.43-2 3.431-2.359a.93.93 0 0 0 -.967-.9 1.075 1.075 0 0 0 -.685.248 8.7 8.7 0 0 1 -1.047.679 9.677 9.677 0 0 0 .3-2.158c0-.756-.1-1.4-1.037-1.409a.991.991 0 0 0 -1.084.966 12.4 12.4 0 0 1 -.45 3.6 14.884 14.884 0 0 1 -5.009 1.163 2.6 2.6 0 0 1 -1.187-.258 1.776 1.776 0 0 0 -.647-.183.965.965 0 0 0 -.941 1c-.006 1.224 2.3 1.235 2.514 1.236a20.061 20.061 0 0 0 4.612-.877l-.073.144a119.516 119.516 0 0 1 -8.439 17.812 1.461 1.461 0 0 0 -.183.611 1 1 0 0 0 1.111.905 1.185 1.185 0 0 0 1.083-.642c2.4-5.028 5.124-9.766 8.518-19.108zm36.727 6.121c.508-1 1.053-1.975 1.562-2.872a2.332 2.332 0 0 0 .365-1.114.887.887 0 0 0 -.931-.941 1.293 1.293 0 0 0 -.5.106c.415-3.706.641-5.828.642-5.936a.993.993 0 0 0 -1.981.062c-.119 2.231-.347 4.714-.575 7.232a42.872 42.872 0 0 1 -6.175 4 1.1 1.1 0 0 0 -.833 1.076.889.889 0 0 0 .967.905c.288 0 1.188-.03 5.85-3.787-.075.648-.115 1.331-.19 2.015-1.381 2.693-3.958 6.928-5.046 8.65-.471.538-1.267 1.434-1.773 1.9a1.175 1.175 0 0 0 -.4.826.975.975 0 0 0 1.039.9 1.446 1.446 0 0 0 1.191-.714 70.51 70.51 0 0 1 4.528-5.629c-.042 1.116-.083 2.2-.088 3.275-.021 4.176.045 5.328 1.125 5.333a1.062 1.062 0 0 0 1.049-1.11c0-.036 0-.108 0-.18a42.367 42.367 0 0 1 -.3-5.473c.006-1.224.049-2.484.127-3.743 2.426-2.832 7.231-6.444 11.478-6.423 3.744.019 6.106 2.766 6.1 4.854-.013 2.52-3.091 6.212-10.7 8.766a1.087 1.087 0 0 0 -.761 1 .878.878 0 0 0 .931.9c1.476.007 12.585-4.51 12.616-10.737.016-3.2-3.5-6.532-7.923-6.554-5.543-.028-10.534 4.7-11.583 5.7.039-.576.114-1.115.152-1.691zm-2.653 4.918c.182-.359.4-.682.582-1.041l-.039.432-.289.323zm57.092.643c.011-2.268-1.881-5.373-6.093-5.394-.936 0-2.988.021-8.183 2.407-1.623.712-3.175 1.46-4.581 1.993a1.012 1.012 0 0 0 .278 1.982 1.415 1.415 0 0 0 .649-.141c1.371-.605 2.85-1.39 4.33-2.1 2.814-1.353 5.231-2.457 7.5-2.446 2.591.013 4.13 1.82 4.122 3.548-.02 3.923-6.475 6.483-11.05 7.108a.97.97 0 0 0 -.941.932 1.024 1.024 0 0 0 1.075 1.013c1.331.005 12.863-2.565 12.894-8.9zm43.333-5.078a.991.991 0 0 0 -.715-.9 21.811 21.811 0 0 0 -7.443-1.693c-2.124-.01-2.487.636-2.49 1.14a.81.81 0 0 0 .752.868.468.468 0 0 0 .216-.035 5.733 5.733 0 0 1 1.4-.173 21.458 21.458 0 0 1 6.8 1.725.909.909 0 0 0 .431.074 1.015 1.015 0 0 0 1.045-1.004zm-3.445 12.474c-3.023-.123-6.37-.283-7.905-2.955a.989.989 0 0 0 -.861-.58 1.076 1.076 0 0 0 -1.049 1.075c-.006 1.116 3.073 4.514 9.265 4.545.539 0 1.691.008 1.7-1.035a1.072 1.072 0 0 0 -1.15-1.05zm-12.112-18.49c3.21-1.28 3.43-2 3.432-2.359a.931.931 0 0 0 -.968-.9 1.075 1.075 0 0 0 -.685.248 9.34 9.34 0 0 1 -1.083.679 8.808 8.808 0 0 0 .335-2.266 1.056 1.056 0 0 0 -1.037-1.3.992.992 0 0 0 -1.085.966 12.329 12.329 0 0 1 -.45 3.6 14.884 14.884 0 0 1 -5.009 1.163 2.6 2.6 0 0 1 -1.186-.258 1.782 1.782 0 0 0 -.647-.183 1 1 0 0 0 -.977 1.039c-.006 1.152 2.045 1.2 2.549 1.2a19.58 19.58 0 0 0 4.576-.877l-.037.144a119.414 119.414 0 0 1 -8.439 17.812 1.465 1.465 0 0 0 -.183.611 1 1 0 0 0 1.112.906 1.188 1.188 0 0 0 1.083-.643c2.4-5.028 5.123-9.766 8.517-19.108zm55.184 7.94a.782.782 0 0 0 .8-.824.764.764 0 0 0 -.788-.832l-12.742-.027.018-3.635 9.07.081a.793.793 0 0 0 .008-1.584l-9.071-.009.017-3.455 11.159.091a.793.793 0 0 0 .007-1.584l-7.7-.038c.435-.61 2.356-3.3 2.36-4.056a1.031 1.031 0 0 0 -1.978-.262 25.277 25.277 0 0 1 -2.289 4.308l-5.688-.028a1 1 0 0 0 .436-.825c0-.972-2.428-3.972-3.435-3.977a.99.99 0 0 0 -1.012.823.576.576 0 0 0 .178.4 11.4 11.4 0 0 1 2.575 3.324.637.637 0 0 0 .179.253l-7.811-.039a.792.792 0 0 0 -.008 1.584l11.087.019-.018 3.455-9-.08a.792.792 0 0 0 -.008 1.584l9 .008-.018 3.636-12.6-.1a.793.793 0 0 0 -.832.824.821.821 0 0 0 .86.832l13.642.032zm-.172 5.759a.757.757 0 0 0 .76-.824.793.793 0 0 0 -.788-.868l-12.851-.028c.074-.287.372-2.3.374-2.7a.9.9 0 0 0 -.968-.868.953.953 0 0 0 -.977 1 14.122 14.122 0 0 1 -.336 2.554l-12.13-.1a.823.823 0 0 0 -.833.86.763.763 0 0 0 .788.831l11.663-.05c-1.6 3.88-5.575 6.38-12.382 7.138a.869.869 0 0 0 -.832.9.923.923 0 0 0 .967.976c.216 0 10.658-.631 13.972-8.389 4.174 7.543 12.954 8.235 13.89 8.239a1.073 1.073 0 0 0 1.157-1.038.946.946 0 0 0 -1.039-.977c-6.083-.21-10.316-3.183-12.421-6.829zm34.6 5.786c.04-.792.08-1.547.083-2.3s-.028-1.476-.061-2.2c-.065-1.4-.958-2.741-3.189-2.824-1.836-.045-3.852-.091-5.8-.1-1.584-.008-3.132.02-4.464.05-2.376.06-3.319 1.459-3.4 2.9-.039.648-.043 1.368-.046 2.124s-.008 1.512.024 2.3c.064 1.584 1.138 2.813 3.441 2.9 1.548.079 3.168.087 4.859.1s3.42.016 5.148-.047c2.387-.062 3.33-1.425 3.409-2.898zm-3.786 1.241c-1.728.028-3.456.055-5.147.047-1.4-.007-2.772-.05-4.1-.092-2.052-.083-2.047-1.09-2.034-3.79.011-2.052.16-3.059 2.032-3.158 1.4-.065 3.024-.057 4.644-.049 5.723.029 6.515.032 6.578 1.869.033.576.029 1.26.026 1.944-.011 2.341-.231 3.168-1.995 3.231zm6.9-19.151a.871.871 0 0 0 .968.8c.9 0 1.046-.427 1.054-2.01.012-2.484-.013-4.716-3.792-4.807-2.735-.049-5.723-.1-8.71-.115l.014-2.915a.944.944 0 0 0 -1-.941.956.956 0 0 0 -1.049.931l.022 2.915c-3.132-.015-6.191.006-8.819.029-3.6.018-3.826 2.1-3.839 4.624-.007 1.548.026 2.2 1 2.2a.929.929 0 0 0 .977-.895l.011-2.34c.043-1.331.55-1.977 2.6-2 2.3-.024 5.544-.044 8.819-.028 3.312.016 6.695.069 9.214.118 2.34.047 2.589.732 2.576 3.216a11.791 11.791 0 0 1 -.042 1.188v.036zm1.987 13.076a1.043 1.043 0 0 0 1.049-1.039.98.98 0 0 0 -.643-.9 39.5 39.5 0 0 1 -11.66-7.761 3.674 3.674 0 0 0 -2.443-1.056 2.988 2.988 0 0 0 -2.237 1.033 37.1 37.1 0 0 1 -11.849 8.509.931.931 0 0 0 -.652.9.969.969 0 0 0 .931 1.013c1.116 0 8.662-4.709 12.824-9.224a1.6 1.6 0 0 1 1.155-.642 1.743 1.743 0 0 1 1.149.618c4.373 4.228 11.116 8.545 12.378 8.551zm-17.46-13.907a.977.977 0 0 0 -.931-.94.706.706 0 0 0 -.614.321 15.644 15.644 0 0 1 -6.757 5.186.84.84 0 0 0 -.579.789.959.959 0 0 0 .931.976c1.55.008 7.95-5.036 7.95-6.332zm14.552 5.435a.984.984 0 0 0 .94-.967c.008-1.584-6.741-5.361-7.6-5.365a.915.915 0 0 0 -.94.823.672.672 0 0 0 .428.651 22.207 22.207 0 0 1 6.421 4.5 1.062 1.062 0 0 0 .752.358zm43.382-7.74a.846.846 0 1 0 .008-1.692l-9.179-.009.055-3.816a1.011 1.011 0 0 0 -2.016-.01l.018 3.816-8.567-.078a.848.848 0 1 0 -.008 1.692zm-6.718 19.044c3.58 4.086 6.887 5 7.1 5a.987.987 0 0 0 1.049-.967.939.939 0 0 0 -.644-.867 16.55 16.55 0 0 1 -6.493-4.423c3.37-4.7 4.62-9.876 4.625-10.956.007-1.4-1.033-2.2-2.8-2.21-.54 0-3.6.126-4.032.16a19.365 19.365 0 0 0 .805-2.659.968.968 0 0 0 -1.04-.834.791.791 0 0 0 -.867.644 28.05 28.05 0 0 1 -5.2 11.2.974.974 0 0 0 -.255.611.884.884 0 0 0 .9.868c.684 0 1.156-.75 2.716-3.334a18.461 18.461 0 0 0 3.029 6.35 18.111 18.111 0 0 1 -5.928 4.9.962.962 0 0 0 -.616.825.932.932 0 0 0 .967.9c.54.018 3.535-1.408 6.685-5.208zm-16.246-19.446a1.167 1.167 0 0 0 1.086-1.11c.006-1.224-4.481-3.874-5.092-3.877a1.018 1.018 0 0 0 -1.013.895.656.656 0 0 0 .357.578 16.771 16.771 0 0 1 4.052 3.223.759.759 0 0 0 .611.291zm4.812 24.285a.891.891 0 0 0 .968.8.907.907 0 0 0 1.012-.823l.224-16.341v-.036a27.067 27.067 0 0 0 2.438-5.279 1.024 1.024 0 0 0 -1.04-.905.861.861 0 0 0 -.867.643 21.6 21.6 0 0 1 -6.2 9.9.934.934 0 0 0 -.364.718.952.952 0 0 0 .931.94c.36 0 .973-.139 3.292-3.223l-.393 13.574v.036zm-6.506-16.554a1.027 1.027 0 0 0 .941-1.039c.009-1.692-5.456-3.051-5.564-3.051a.937.937 0 0 0 -.976.931.646.646 0 0 0 .464.65 15.32 15.32 0 0 1 4.525 2.29 1.053 1.053 0 0 0 .611.219zm-3.176 15.822a35.484 35.484 0 0 0 4.8-10.092.891.891 0 0 0 -.932-.868.881.881 0 0 0 -.866.572 32.317 32.317 0 0 1 -4.834 9.407.957.957 0 0 0 -.219.575 1.063 1.063 0 0 0 1.039 1.013 1.253 1.253 0 0 0 1.012-.607zm23.381-11.079a24.131 24.131 0 0 1 -2.4 4.271 18.014 18.014 0 0 1 -3.026-6.89c.509-1 .982-2.083 1.42-3.161 1.4-.029 3.24-.092 3.924-.088.972 0 1.51.3 1.506 1.015a13.074 13.074 0 0 1 -.844 3.344 13.24 13.24 0 0 0 -3.521-1.422.979.979 0 0 0 -.94.932.641.641 0 0 0 .5.65 16.5 16.5 0 0 1 3.384 1.35zm-175.064 57.024a1 1 0 0 0 .9-1.039c.006-1.3-4.123-3.3-4.735-3.3a.924.924 0 0 0 -.976.787.811.811 0 0 0 .572.687 16.921 16.921 0 0 1 3.731 2.61.631.631 0 0 0 .508.255zm-3.4 2.791a1.055 1.055 0 0 0 .943-1.036c.006-1.224-3.978-3.367-4.662-3.371a.886.886 0 0 0 -.94.751.763.763 0 0 0 .537.687 15.583 15.583 0 0 1 3.586 2.682.741.741 0 0 0 .538.287zm-2.684 11.542a1.409 1.409 0 0 0 -1.65-1.2c-6.371-.032-10.742-4.3-10.718-9.124.03-6.12 6.964-10.657 12.651-10.629a8.142 8.142 0 0 1 .936.041h.4c.9 0 1.585-.352 1.589-1.144a1.3 1.3 0 0 0 -1.542-1.16 26.805 26.805 0 0 0 -9.477 2.149c-2.02.782-8.583 3.233-12.332 4.187a1.269 1.269 0 0 0 -1.049 1.147 1.111 1.111 0 0 0 1.254 1.05c1.584.007 8.908-3.376 9.161-3.483a1.317 1.317 0 0 1 .4-.106c.108 0 .144 0 .144.073a.708.708 0 0 1 -.29.358 11.187 11.187 0 0 0 -3.71 7.757c-.026 5.22 4.123 10.639 12.4 11.292h.216a1.413 1.413 0 0 0 1.619-1.208zm47.178-18.2a1.135 1.135 0 0 0 1.265-1.074 1.1 1.1 0 0 0 -1.291-1.014c-3.2-.016-6.48.076-9.72.312a27.847 27.847 0 0 1 .455-4.749c0-.072 0-.108 0-.18a1.117 1.117 0 0 0 -1.147-1.05c-1.188-.006-1.228.966-1.247 4.745q0 .648-.007 1.4a87.081 87.081 0 0 0 -14.7 2.519 1.26 1.26 0 0 0 -1.085 1.111 1.044 1.044 0 0 0 1.038 1.049 1.811 1.811 0 0 0 .433-.07 58.8 58.8 0 0 1 14.376-2.809 42.662 42.662 0 0 0 .372 4.9 5.465 5.465 0 0 0 -2.122-.443 3.661 3.661 0 0 0 -3.87 3.689c-.01 2.159 1.523 5.083 4.691 5.1a3.546 3.546 0 0 0 1.621-.352 15.228 15.228 0 0 1 -10 6.322 1.177 1.177 0 0 0 -1.121 1.039 1.116 1.116 0 0 0 1.219 1.013 16.97 16.97 0 0 0 11.7-7.861 7.38 7.38 0 0 0 1.171-3.7 5.007 5.007 0 0 0 -1.315-3.426c-.317-1.549-.315-1.873-.437-6.409 1.909-.135 3.817-.161 5.725-.152 1.331.007 2.663.049 3.959.092h.036zm-10.55 7.939a3.935 3.935 0 0 1 .211 1.009v.108c0 .108-.037.216-.038.324-.188 1.654-1.091 2.3-2.063 2.293a3.11 3.11 0 0 1 -2.936-3.182 2.04 2.04 0 0 1 2.171-2.149 3.288 3.288 0 0 1 2.657 1.6z" fill-rule="evenodd" stroke="#000"/></svg>